<svg width="188" height="57" viewBox="0 0 188 57" fill="none" xmlns="http://www.w3.org/2000/svg">
<g clip-path="url(#clip0_10_455)">
<path d="M21.1308 49.0558C31.4359 49.0558 39.7899 40.8391 39.7899 30.7032C39.7899 20.5673 31.4359 12.3506 21.1308 12.3506C10.8257 12.3506 2.47168 20.5673 2.47168 30.7032C2.47168 40.8391 10.8257 49.0558 21.1308 49.0558Z" fill="#F7A733" stroke="#233B57" stroke-width="5" stroke-miterlimit="10"/>
<path d="M10.26 19.8812C9.13467 7.40741 12.5297 4.47325 14.0818 4.25815C14.3045 4.22906 14.5301 4.22906 14.7528 4.25815L17.2243 4.45236L18.8783 5.04337L31.1761 6.92291C28.4838 7.13174 27.7534 10.1139 28.8809 22.5857L10.26 19.8812Z" fill="url(#paint0_linear_10_455)"/>
<path d="M17.3517 7.07098C17.1394 5.56736 16.0459 4.43337 14.772 4.25586L30.2186 5.45667C31.9958 5.56736 33.2358 6.50086 33.4905 8.2718L32.4289 7.94183L31.3142 8.35951L30.2759 7.78103L29.1612 8.1987L28.123 7.62023L27.0083 8.0379L25.9721 7.46151L24.8574 7.87918L23.8276 7.30906L22.7129 7.72673L21.6747 7.14825L20.56 7.56593L19.5238 6.98745L18.4091 7.40512L17.3517 7.07098Z" fill="white"/>
<path d="M14.1731 4.27499C14.3957 4.2447 14.6215 4.2447 14.8441 4.27499L17.2603 4.46294L17.2243 4.45041L14.7528 4.25619C14.5301 4.2271 14.3045 4.2271 14.0818 4.25619C12.5297 4.46503 9.13467 7.40546 10.26 19.8793L10.3513 19.8939C9.22597 7.42425 12.621 4.49009 14.1731 4.27499Z" fill="#C6C6C6"/>
<g opacity="0.42">
<path d="M23.2225 6.32791C23.1919 6.32232 23.1646 6.30576 23.1457 6.28145C23.1269 6.25714 23.1179 6.2268 23.1206 6.19635C23.1216 6.17988 23.126 6.16378 23.1334 6.14898C23.1409 6.13418 23.1512 6.12097 23.1638 6.1101C23.1764 6.09924 23.1911 6.09093 23.207 6.08566C23.2229 6.08039 23.2397 6.07826 23.2565 6.0794L30.7685 6.63908C30.8026 6.64157 30.8342 6.65728 30.8565 6.68273C30.8788 6.70819 30.8899 6.74132 30.8874 6.77483C30.8849 6.80833 30.8689 6.83948 30.843 6.86141C30.8172 6.88335 30.7835 6.89427 30.7494 6.89177L23.2373 6.33418L23.2225 6.32791Z" fill="#6B7A87"/>
<path d="M19.1076 6.02258C19.074 6.01815 19.0437 6.00081 19.0232 5.97438C19.0027 5.94794 18.9937 5.91457 18.9982 5.88162C19.0027 5.84866 19.0203 5.81882 19.0472 5.79865C19.0741 5.77848 19.108 5.76964 19.1415 5.77407L21.4261 5.94323C21.4429 5.94446 21.4592 5.94892 21.4742 5.95636C21.4891 5.9638 21.5025 5.97406 21.5134 5.98657C21.5244 5.99908 21.5327 6.01358 21.5379 6.02926C21.5432 6.04493 21.5452 6.06147 21.544 6.07793C21.5427 6.09438 21.5382 6.11043 21.5306 6.12516C21.5231 6.13989 21.5126 6.15301 21.4999 6.16378C21.4872 6.17454 21.4724 6.18273 21.4565 6.18789C21.4406 6.19305 21.4238 6.19506 21.407 6.19383L19.1224 6.02258H19.1076Z" fill="#6B7A87"/>
<path d="M21.8062 5.45688C21.7762 5.44907 21.7501 5.43073 21.7329 5.40533C21.7156 5.37992 21.7084 5.34919 21.7126 5.31892C21.7168 5.28864 21.732 5.26091 21.7555 5.24094C21.779 5.22097 21.8091 5.21013 21.8402 5.21046L29.8618 5.80564C29.8955 5.80883 29.9265 5.8248 29.9483 5.85016C29.9701 5.87552 29.981 5.90825 29.9786 5.94139C29.9759 5.97427 29.9601 6.00478 29.9347 6.02628C29.9092 6.04779 29.8762 6.05855 29.8427 6.05625L21.8211 5.45897L21.8062 5.45688Z" fill="#6B7A87"/>
<path d="M18.1543 5.18537C18.1235 5.18023 18.0959 5.16378 18.077 5.13936C18.058 5.11493 18.0492 5.08435 18.0524 5.0538C18.0534 5.03742 18.0578 5.02141 18.0653 5.00672C18.0727 4.99202 18.0831 4.97894 18.0957 4.96824C18.1084 4.95754 18.1231 4.94944 18.139 4.94441C18.1549 4.93937 18.1716 4.93752 18.1883 4.93894L20.2903 5.09557C20.307 5.09663 20.3234 5.10093 20.3384 5.10823C20.3535 5.11553 20.3669 5.12568 20.378 5.1381C20.389 5.15052 20.3975 5.16496 20.4028 5.1806C20.4082 5.19624 20.4103 5.21276 20.4092 5.22923C20.4079 5.2457 20.4032 5.26175 20.3955 5.27646C20.3879 5.29116 20.3773 5.30423 20.3645 5.31491C20.3517 5.32558 20.3368 5.33366 20.3208 5.33867C20.3048 5.34367 20.2879 5.34552 20.2712 5.34409L18.1692 5.18746L18.1543 5.18537Z" fill="#6B7A87"/>
</g>
<path d="M7.00293 20.8296C7.00293 20.8296 11.7144 19.0524 14.4492 19.6309C18.1564 20.4078 24.0484 34.0741 18.6447 35.7949C15.3917 36.8266 11.9374 37.0906 8.56139 36.5655L7.00293 20.8296Z" fill="#699BB7"/>
<path d="M7.90967 29.9848L8.56151 36.5653C11.938 37.0884 15.3923 36.8222 18.6448 35.7884C20.9995 35.0387 21.7257 32.8918 20.9018 29.6549C15.6086 29.2706 11.086 29.1077 7.90967 29.9848Z" fill="#5D88A1"/>
<path d="M8.21973 33.1134L8.56157 36.5655C11.9381 37.0885 15.3924 36.8224 18.6449 35.7886C20.0229 35.35 20.8403 34.4332 21.1185 33.1008C15.8804 32.9129 11.5575 32.8356 8.21973 33.1134Z" fill="#51768B"/>
<path d="M16.6425 21.2177C15.893 20.3531 15.1329 19.7684 14.4492 19.6243C11.7144 19.052 7.00293 20.8292 7.00293 20.8292L7.14731 22.2911C10.2374 21.4552 13.4401 21.0931 16.6425 21.2177V21.2177Z" fill="#8ED2EE"/>
<path d="M8.82598 36.5984C9.81301 36.5003 10.2507 32.8932 9.8037 28.5418C9.35666 24.1904 8.19412 20.7423 7.20709 20.8404C6.22006 20.9385 5.78232 24.5456 6.22937 28.897C6.67641 33.2485 7.83896 36.6965 8.82598 36.5984Z" fill="#ABD4EB"/>
<path d="M8.69464 36.5716C9.68166 36.4735 10.1194 32.8664 9.67236 28.5149C9.22531 24.1635 8.06277 20.7155 7.07574 20.8136C6.08872 20.9117 5.65098 24.5187 6.09802 28.8702C6.54507 33.2216 7.70761 36.6696 8.69464 36.5716Z" fill="#92B4C7"/>
<path d="M9.66096 28.4292C9.19809 24.1188 8.05366 20.7189 7.07484 20.815C6.09603 20.911 5.66076 24.4341 6.07904 28.7007L9.66096 28.4292Z" fill="#5D87A3"/>
<path d="M9.16823 35.2997C9.82158 35.2348 10.0445 32.1969 9.66623 28.5145C9.28791 24.8321 8.45158 21.8995 7.79823 21.9645C7.14488 22.0294 6.92192 25.0672 7.30023 28.7497C7.67855 32.4321 8.51488 35.3646 9.16823 35.2997Z" fill="#486D88"/>
<path d="M7.54664 28.7985C7.23027 25.7057 7.29185 23.043 7.6528 22.0322C7.11137 22.5 6.94788 25.3486 7.29822 28.7505C7.62732 31.9603 8.30464 34.598 8.90551 35.1827C8.38107 34.1093 7.84177 31.668 7.54664 28.7985Z" fill="#57A1C2"/>
<path d="M9.35624 32.567C9.76342 32.5265 9.90236 30.6332 9.66658 28.3381C9.4308 26.0431 8.90957 24.2154 8.5024 24.2558C8.09522 24.2963 7.95628 26.1896 8.19206 28.4847C8.42784 30.7797 8.94907 32.6075 9.35624 32.567Z" fill="#285170"/>
<path d="M35.7072 28.3035C36.4051 23.9841 36.1766 20.3584 35.1969 20.2052C34.2171 20.0521 32.8571 23.4295 32.1592 27.7489C31.4613 32.0683 31.6898 35.694 32.6695 35.8471C33.6493 36.0003 35.0093 32.6229 35.7072 28.3035Z" fill="#699BB7"/>
<path d="M36.1062 24.1501C36.1529 21.8759 35.8344 20.3054 35.1975 20.2052C34.5605 20.1049 33.743 21.5313 33.0742 23.7554L36.1062 24.1501Z" fill="#8ED2EE"/>
<path d="M36.0277 22.0908C35.3907 22.0052 34.6327 21.9196 33.7685 21.8423C33.1464 23.2164 32.5498 25.3361 32.1591 27.7503C32.0784 28.2536 32.0105 28.7485 31.9468 29.2289C33.2207 29.185 34.448 29.137 35.5563 29.0848C35.6051 28.8279 35.6497 28.5668 35.6922 28.3037C36.1062 25.8311 36.2018 23.5861 36.0277 22.0908Z" fill="#82A3C6"/>
<path d="M31.7578 32.0211C31.7238 34.2327 32.0445 35.7489 32.6708 35.847C33.3524 35.9535 34.2187 34.3496 34.9172 31.9062L31.7578 32.0211Z" fill="#51768B"/>
<path d="M35.7071 28.3036C36.4057 23.9849 36.1763 20.3678 35.1975 20.2049C35.1448 20.1967 35.091 20.1967 35.0383 20.2049C35.8685 20.7458 36.0277 24.1853 35.3738 28.2347C34.7134 32.3258 33.4628 35.5711 32.4946 35.7716C32.547 35.808 32.6074 35.8316 32.6709 35.8405C33.6497 36.0014 35.0086 32.6224 35.7071 28.3036Z" fill="#82B3D7"/>
<path d="M27.6259 47.9783C30.6961 42.9035 31.2354 40.6857 32.6495 35.8428C32.6622 35.7926 32.6771 35.7446 32.692 35.6966C33.0572 34.431 33.3778 33.1801 33.6623 31.9521C33.8831 31.0012 34.082 30.0642 34.2589 29.1412C34.3056 28.8968 34.3524 28.6567 34.3969 28.4144C34.4139 28.322 34.4051 28.2268 34.3714 28.1389C34.3378 28.0511 34.2806 27.9738 34.2058 27.9153V27.9153C34.1319 27.8563 34.0753 27.7789 34.0421 27.6911C34.0089 27.6033 34.0002 27.5084 34.0169 27.4162C34.2292 26.1966 34.4097 25.0354 34.5562 23.9474C34.6454 23.2833 34.726 22.6443 34.794 22.0386L34.8683 21.9509L35.0976 21.6815C35.1674 21.6016 35.2104 21.5024 35.2208 21.3975C35.2526 21.0989 35.2802 20.8107 35.3078 20.5308C35.3184 20.4368 35.3269 20.345 35.3333 20.2531C35.5732 17.6802 35.6199 15.88 35.6306 15.2243C35.6326 15.0452 35.6031 14.8672 35.5435 14.698L35.1465 13.5745C35.1183 13.4941 35.0726 13.4208 35.0124 13.3598C34.9522 13.2988 34.8791 13.2516 34.7982 13.2215L34.7367 13.1986C34.3205 13.044 33.9051 12.8985 33.4903 12.7621C33.1994 12.666 32.9085 12.5762 32.6198 12.4906L32.1951 12.3653C30.9635 12.0183 29.7131 11.7394 28.4497 11.5299L27.8828 11.4443C27.7469 11.4213 27.6089 11.4026 27.473 11.3838L27.3202 11.3629L26.7023 11.2773C26.1099 11.2042 25.526 11.1478 24.957 11.106L24.6979 11.0914C24.2945 11.0621 23.8996 11.0413 23.511 11.0246L22.8528 11.0016C22.3291 10.9891 21.8202 10.9891 21.3262 11.0016H21.0162H20.6553L20.3028 11.012L19.9546 11.0246C19.3834 11.0475 18.842 11.0809 18.3367 11.1227L18.0373 11.1478L17.7464 11.1728L17.464 11.2L17.1901 11.2292L16.9417 11.2564H16.9099L16.5744 11.296L16.2559 11.3357L15.9671 11.3754L15.672 11.4172L15.4937 11.4443L15.1709 11.4944C14.8546 11.5467 14.5913 11.5947 14.3853 11.6344L14.052 11.7012C13.938 11.7259 13.8348 11.785 13.7568 11.8703L12.5253 13.2466C12.4703 13.3074 12.4305 13.3801 12.4091 13.4588C12.3877 13.5375 12.3854 13.62 12.4022 13.6998C12.4022 13.7374 12.4192 13.7812 12.4298 13.8272L12.4425 13.8877L12.4553 13.9504C12.4553 13.9733 12.4659 13.9963 12.4701 14.0193C12.4744 14.0423 12.4701 14.0673 12.485 14.0924C12.4912 14.1151 12.4962 14.1381 12.4999 14.1613C12.6952 15.1178 13.0583 16.9889 13.4575 19.5096C13.4999 19.7853 13.5445 20.0693 13.5891 20.3596C13.6273 20.6102 13.6655 20.867 13.7038 21.1281C13.7038 21.1615 13.7038 21.197 13.7186 21.2304C13.7335 21.2638 13.7186 21.2722 13.7186 21.2931C13.9692 23.0139 14.2197 24.9582 14.4426 27.0632C14.4426 27.1196 14.4554 27.1739 14.4596 27.2303C14.5318 27.9174 14.6019 28.6233 14.672 29.3437C14.7767 30.5049 14.868 31.7015 14.9459 32.9337C15.0202 34.124 15.0817 35.3436 15.1221 36.582C15.224 39.6185 15.2155 42.7762 15.0329 45.9359V46.0486C14.9798 46.9487 14.9671 47.1492 14.9034 47.8133C14.8917 47.9397 14.9266 48.0661 15.0019 48.1693C15.0771 48.2724 15.1876 48.3455 15.3132 48.3751C15.5595 48.4294 15.9098 48.515 16.3748 48.6382C16.3941 48.6444 16.4141 48.6486 16.4343 48.6507L16.8292 48.7071L16.895 48.7217C18.7061 49.2062 20.9568 48.4858 24.5387 48.8241L25.2903 48.563C25.3689 48.563 26.7766 48.0973 26.8615 48.1036" fill="#929FA8"/>
<path d="M27.6706 47.9156C30.5922 42.1037 30.9022 39.9589 32.1868 35.3854C32.518 34.2159 32.8089 33.0882 33.07 31.973C33.2972 31.0165 33.4947 30.0935 33.6879 29.1662C33.7495 28.8697 33.8089 28.5731 33.8663 28.2808L33.482 27.6062L32.6135 26.0775L32.5116 25.8979L32.4501 25.7873L32.2844 25.497L31.8959 24.8141L31.5222 24.1541L31.3226 23.8054L31.2738 23.7198L31.6368 23.4921L32.9766 22.6568L33.2781 22.4688L33.586 22.2767L34.1678 21.9112L34.206 21.8862L34.8748 21.4685C34.9173 21.0411 34.9541 20.6283 34.9852 20.2301C35.0348 19.6022 35.0723 19.0133 35.0977 18.4633C35.0977 18.4445 35.0977 18.4237 35.0977 18.4049C35.0977 18.3067 35.0977 18.2127 35.1105 18.1188C35.1115 18.1021 35.1115 18.0853 35.1105 18.0686C35.1105 18.0248 35.1105 17.983 35.1105 17.9412C35.1105 17.8995 35.1105 17.8368 35.1105 17.7846C35.1105 17.7324 35.1105 17.7366 35.1105 17.7115C35.1105 17.628 35.1105 17.5445 35.1105 17.463C35.1253 17.0453 35.1317 16.6485 35.1317 16.2873C35.1317 15.0342 35.0935 14.1571 35.0616 13.6977C35.0543 13.592 35.0179 13.4902 34.9561 13.4034C34.8944 13.3165 34.8098 13.2479 34.7113 13.2048L34.6837 13.1923C34.276 13.0419 33.8698 12.9027 33.465 12.7746C33.1741 12.6785 32.8832 12.5887 32.5944 12.5031L32.1698 12.3778C30.9381 12.0308 29.6877 11.7519 28.4244 11.5425L27.8829 11.4443C27.7471 11.4213 27.609 11.4026 27.4732 11.3838L27.3203 11.3629L26.7024 11.2773C26.11 11.2042 25.5261 11.1478 24.9571 11.106L24.6981 11.0914C24.2946 11.0621 23.8997 11.0413 23.5112 11.0246L22.853 11.0016C22.3292 10.9891 21.8204 10.9891 21.3263 11.0016H21.0164H20.6554L20.3029 11.012L19.9547 11.0246C19.3836 11.0475 18.8421 11.0809 18.3368 11.1227L18.0374 11.1478L17.7465 11.1728L17.4642 11.2L17.1903 11.2292L16.9418 11.2564H16.91L16.5745 11.296L16.256 11.3357L15.9673 11.3754L15.6721 11.4172L15.4938 11.4443L15.171 11.4944C14.8547 11.5467 14.5914 11.5947 14.3854 11.6344C14.2497 11.6627 14.1301 11.7409 14.0512 11.8531C13.9722 11.9653 13.9399 12.103 13.9608 12.2379C13.9608 12.2609 13.9608 12.2859 13.9608 12.311C13.9608 12.3361 13.9608 12.334 13.9608 12.3444C13.9608 12.3548 13.9608 12.3799 13.9608 12.3966V12.4384C13.9608 12.4488 13.9608 12.4593 13.9608 12.4697C13.9608 12.4802 13.9608 12.4885 13.9608 12.4969V12.5407C13.962 12.5581 13.962 12.5755 13.9608 12.5929C13.9608 12.6242 13.9608 12.6556 13.9757 12.689C14.1222 13.6413 14.3642 15.2598 14.6254 17.3836C14.7145 18.1243 14.8066 18.9249 14.9014 19.7853C14.9269 20.038 14.9545 20.2969 14.9821 20.5601C14.9821 20.6666 15.0033 20.7689 15.016 20.8858C15.0288 21.0028 15.033 21.078 15.0437 21.174C15.2114 22.8677 15.3685 24.7389 15.4959 26.7437C15.4959 26.8252 15.4959 26.9066 15.5108 26.9881C15.5596 27.7587 15.6042 28.5481 15.6403 29.3563C15.6955 30.5174 15.7372 31.7113 15.7656 32.9378C15.791 34.0885 15.8038 35.2643 15.7974 36.4609C15.7847 40.5854 15.6764 43.9582 15.1604 48.2957L27.6706 47.9156ZM24.8977 48.7385C20.3964 49.2543 17.5958 48.9891 16.5363 48.2707C16.5323 48.2682 16.5287 48.265 16.526 48.2612C16.5232 48.2574 16.5212 48.2531 16.5201 48.2485C16.519 48.2439 16.5189 48.2392 16.5196 48.2346C16.5204 48.23 16.5221 48.2256 16.5246 48.2216C16.5271 48.2176 16.5304 48.2142 16.5343 48.2114C16.5381 48.2087 16.5425 48.2067 16.5471 48.2057C16.5518 48.2046 16.5566 48.2044 16.5613 48.2052C16.566 48.206 16.5705 48.2076 16.5745 48.2101C17.7933 48.8011 20.1352 48.751 24.1885 48.7677C24.2883 48.7823 24.7087 46.9884 24.9422 48.7531L24.8977 48.7385Z" fill="#B0BBC1"/>
<path d="M25.885 18.3776C26.1388 18.6925 26.5074 18.8977 26.9126 18.9498L28.883 19.1962C29.0296 19.2147 29.1786 19.1984 29.3175 19.1486C29.4564 19.0988 29.5811 19.017 29.6813 18.9101L30.9128 17.607C30.9128 17.607 32.9257 17.9766 35.0977 18.459C35.257 15.1657 34.9534 13.4971 34.9534 13.4971C25.7852 9.95935 16.6297 11.2479 14.3961 11.6468C14.2571 11.6708 14.1332 11.7475 14.0511 11.8603C13.9689 11.9731 13.935 12.1131 13.9565 12.2503C14.0818 13.0856 14.3451 14.8858 14.6275 17.4044C17.9664 16.9848 21.333 16.8151 24.6981 16.8969L25.885 18.3776Z" fill="#929FA8"/>
<path d="M25.9888 18.2023C26.2424 18.5175 26.6112 18.7228 27.0165 18.7745L28.9869 19.0209C29.1348 19.0408 29.2855 19.0251 29.426 18.9753C29.5665 18.9255 29.6926 18.843 29.7937 18.7348L30.8999 17.5423C32.3179 17.7649 33.7211 18.0711 35.1018 18.4591C35.1934 16.8718 35.1934 15.2807 35.1018 13.6935C35.0944 13.5825 35.0549 13.476 34.9879 13.3865C34.9209 13.2969 34.8293 13.2281 34.7239 13.1881C25.6385 9.81536 16.5998 11.2146 14.3874 11.6406C14.2517 11.6689 14.1321 11.7472 14.0531 11.8594C13.9742 11.9716 13.9418 12.1092 13.9627 12.2441C14.0901 13.067 14.3534 14.8797 14.6358 17.4045C17.9967 16.8461 21.4057 16.6173 24.8126 16.7216L25.9888 18.2023Z" fill="#C9D3D7"/>
<path d="M14.8568 48.2831C16.5554 30.9622 12.3493 13.4512 12.3493 13.4512L10.3555 16.1452C9.79109 16.9097 9.54846 17.8591 9.67823 18.7953C10.381 23.8325 12.6741 40.5415 13.1137 46.8735C13.1667 47.6232 13.1349 47.3287 13.6572 47.878L14.8568 48.2831Z" fill="#60727F"/>
<path d="M34.4652 28.1094C34.4652 28.1094 28.9745 30.2374 15.4027 26.9628L14.978 20.9295C18.0801 20.0357 27.4776 19.2943 35.2232 21.5561L34.8134 22.0364C34.6223 23.7217 34.3548 25.6388 33.9811 27.7188L34.4652 28.1094Z" fill="#C9D3D7"/>
<path d="M19.0843 24.5615L28.0019 23.3733L31.9023 21.5104L33.2655 22.4523L33.7559 23.1665L34.7963 22.0409L35.2061 21.5605C27.4605 19.2968 18.063 20.0381 14.9609 20.934L15.3856 26.9673L15.6892 26.5497L19.0843 24.5615Z" fill="#60727F"/>
<path d="M34.3611 22.2745C34.372 22.187 34.3505 22.0986 34.3006 22.0254C34.2507 21.9522 34.1757 21.899 34.0893 21.8756C25.8554 19.5784 18.2138 20.5412 15.3262 21.151C15.3814 22.9136 15.5746 24.6511 15.6956 26.5536C17.2244 27.0527 21.0037 27.8254 24.8617 28.1136C25.0859 28.1299 25.3094 28.0742 25.4987 27.9549L26.7726 27.2574C26.9728 27.1472 27.2017 27.0979 27.4304 27.1158C27.659 27.1336 27.8772 27.2178 28.0572 27.3576L29.0763 28.1491C29.2242 28.2489 29.4003 28.3 29.5795 28.2953C31.0531 28.264 32.3398 28.1178 33.223 27.7941C33.3299 27.7539 33.4242 27.6869 33.4965 27.5997C33.5687 27.5124 33.6165 27.4081 33.635 27.2971C33.9449 25.4781 34.1828 23.7865 34.3611 22.2745Z" fill="#1A4F96"/>
<path d="M34.5288 13.5618C25.677 10.2997 16.874 11.5716 14.4492 12.0226C21.1804 11.7718 27.9184 12.2883 34.5288 13.5618V13.5618Z" fill="white"/>
<path d="M28.7324 20.7917L28.5328 20.7645L28.1252 20.7144L27.7133 20.6747L27.3799 20.6392L26.9107 20.5975L26.5157 20.5641C26.2546 20.5432 25.9934 20.5265 25.7365 20.5098L24.9764 22.028L24.1908 23.5985L24.0358 23.9075L24.0018 23.9765L23.3436 25.29L23.1504 25.6743L22.0718 27.8316L22.7088 27.911H22.7491C22.972 27.9381 23.1929 27.9632 23.4179 27.9861C23.8935 28.0363 24.3727 28.0794 24.8554 28.1156H24.9318H25.0231L25.1186 28.101C25.1509 28.0953 25.1829 28.0876 25.2142 28.078L25.3097 28.0467L27.622 23.4251L28.0954 22.4812L28.7451 21.1822L28.9256 20.823L28.7324 20.7917ZM30.2845 21.0235C30.0297 20.9796 29.7749 20.94 29.5223 20.9024H29.484L29.4522 20.9671L29.2717 21.3263L28.8471 22.1617L28.6475 22.5543L28.3078 23.2226L26.1102 27.6081L26.7472 27.251C26.791 27.2265 26.8364 27.2049 26.8831 27.1863C26.9518 27.1598 27.0229 27.1395 27.0954 27.1257C27.2544 27.0968 27.4177 27.1003 27.5752 27.1362L27.6496 27.155H27.6623L28.5902 25.3005L28.8152 24.8536L29.3184 23.847L29.5308 23.4022L30.0467 22.3705L30.6837 21.0903L30.2845 21.0235ZM28.1145 22.4854L27.2652 22.3622L26.9553 22.3162L24.9806 22.0301L24.195 23.6006L24.04 23.9096L24.3267 23.872L27.6389 23.4293L28.1145 22.4854Z" fill="#0065A8"/>
<path d="M33.2144 27.7943C33.3212 27.7541 33.4155 27.6871 33.4878 27.5998C33.5601 27.5126 33.6078 27.4083 33.6263 27.2972C33.9448 25.4762 34.1826 23.7867 34.3609 22.2747C34.3718 22.1872 34.3503 22.0988 34.3004 22.0256C34.2505 21.9524 34.1755 21.8992 34.0891 21.8758C33.8768 21.8153 33.6645 21.7589 33.4522 21.7046L30.1611 28.2767C31.3884 28.2203 32.4521 28.0741 33.2144 27.7943Z" fill="#5EA3CD"/>
<path d="M10.9094 27.8399L10.8818 27.6749L11.6228 27.5496L11.7587 26.9482L13.1813 26.708L13.5996 27.2134L14.4807 27.0651L14.5105 27.2301L13.5295 27.3951L13.1134 26.8876L11.8989 27.0944L11.7651 27.6937L10.9094 27.8399Z" fill="#50606A"/>
<path d="M12.015 22.1378L11.8951 22.1544C11.1648 22.256 10.6565 22.9207 10.7598 23.639L10.964 25.0596C11.0673 25.7779 11.7431 26.2779 12.4734 26.1763L12.5933 26.1596C13.3236 26.058 13.8319 25.3933 13.7286 24.675L13.5243 23.2544C13.421 22.5361 12.7453 22.0362 12.015 22.1378Z" fill="#586872"/>
<path d="M11.2534 26.1692L10.7651 22.7631C10.7591 22.7221 10.7613 22.6803 10.7717 22.6402C10.7821 22.6001 10.8005 22.5623 10.8257 22.5292C10.851 22.496 10.8826 22.4681 10.9188 22.4469C10.955 22.4258 10.9952 22.4119 11.0368 22.406L13.1601 22.1115C13.2162 22.1036 13.2735 22.1108 13.3257 22.1324C13.2925 22.0811 13.2451 22.0403 13.189 22.0147C13.1329 21.9892 13.0706 21.98 13.0093 21.9883L10.8861 22.2849C10.8023 22.2968 10.7267 22.3408 10.6758 22.4073C10.6249 22.4738 10.6028 22.5574 10.6143 22.6399L11.109 26.0481C11.1174 26.102 11.1397 26.1528 11.174 26.1956C11.2082 26.2384 11.2531 26.2718 11.3044 26.2925C11.2783 26.2556 11.2609 26.2135 11.2534 26.1692V26.1692Z" fill="#50606A"/>
<path d="M13.7146 21.133L10.084 21.668L10.1091 21.8332L13.7397 21.2982L13.7146 21.133Z" fill="#50606A"/>
<path d="M29.164 17.9098L26.8615 17.6245C26.7638 17.6124 26.6746 17.6805 26.6623 17.7766L26.6602 17.7932C26.6478 17.8893 26.7171 17.977 26.8148 17.9891L29.1173 18.2744C29.2151 18.2865 29.3043 18.2184 29.3166 18.1223L29.3187 18.1057C29.331 18.0096 29.2618 17.9219 29.164 17.9098Z" fill="#929FA8"/>
<path d="M29.2358 17.3429L26.9333 17.0576C26.8356 17.0455 26.7464 17.1136 26.7341 17.2097L26.7319 17.2263C26.7196 17.3224 26.7889 17.4101 26.8866 17.4222L29.1891 17.7075C29.2868 17.7196 29.376 17.6515 29.3884 17.5554L29.3905 17.5388C29.4028 17.4427 29.3335 17.355 29.2358 17.3429Z" fill="#929FA8"/>
<path d="M29.3076 16.7735L27.0051 16.4882C26.9074 16.4761 26.8181 16.5442 26.8058 16.6404L26.8037 16.6569C26.7914 16.7531 26.8606 16.8408 26.9584 16.8529L29.2609 17.1382C29.3586 17.1503 29.4478 17.0822 29.4601 16.9861L29.4623 16.9695C29.4746 16.8734 29.4053 16.7856 29.3076 16.7735Z" fill="#929FA8"/>
<path d="M32.5054 30.4109C26.1866 31.1063 19.9995 29.5045 18.63 29.1161C18.5522 29.0946 18.4691 29.1019 18.3963 29.1365C18.3236 29.1711 18.2662 29.2307 18.2351 29.304L17.9739 29.9138C17.9295 30.0199 17.9058 30.1333 17.9038 30.248C17.8868 31.1209 17.9718 34.9322 20.56 36.1226C22.8722 37.1876 27.5137 37.6492 29.363 37.7933C29.4474 37.7999 29.5321 37.7865 29.6101 37.7541C29.6881 37.7217 29.757 37.6713 29.8109 37.6072C29.8649 37.5431 29.9023 37.4671 29.9201 37.3857C29.9378 37.3043 29.9354 37.2199 29.9129 37.1396C29.4755 35.6005 28.8938 31.9604 32.5054 30.4067V30.4109Z" fill="#554C54"/>
<path d="M18.7317 29.1455C18.6638 29.4796 18.617 29.8618 18.5852 30.1688C18.5756 30.3443 18.6226 30.5183 18.7195 30.6661C18.8163 30.8138 18.958 30.9277 19.1245 30.9916C20.8592 31.7121 26.1079 33.6167 30.4372 32.3867C30.5568 32.3561 30.6654 32.2934 30.7509 32.2056C30.8363 32.1179 30.8953 32.0085 30.9213 31.8896C30.9999 31.4401 31.0474 30.9859 31.0635 30.5301C25.4114 30.8601 20.1606 29.5423 18.7317 29.1455Z" fill="url(#paint1_linear_10_455)"/>
<path d="M27.2266 36.8599C27.2066 36.7479 27.1551 36.6438 27.078 36.5592C26.3667 35.6507 25.2371 35.2351 24.4282 34.4269C24.1585 34.1596 23.9059 33.838 23.5491 33.7419C23.237 33.6584 22.8973 33.767 22.5831 33.6876C22.3775 33.623 22.1875 33.5178 22.0247 33.3786C21.5299 33.0089 20.8208 32.9337 20.2135 32.8941C19.2092 32.8314 18.7039 33.3243 18.5298 33.8547C18.9183 34.7903 19.5468 35.657 20.5596 36.1227C21.5975 36.5547 22.6815 36.8707 23.7912 37.0645C24.9569 37.1 26.1841 37.0645 27.1502 37.1376C27.2101 37.0577 27.2374 36.9586 27.2266 36.8599V36.8599Z" fill="#AB3A1F"/>
<path d="M21.7253 29.8846C20.68 29.6814 19.6461 29.4255 18.6274 29.1182V29.1182C19.8271 29.4565 26.1268 31.1105 32.488 30.4088C28.4921 30.935 24.4345 30.4004 21.7253 29.8846Z" fill="#C4C4C4"/>
<path d="M29.3693 37.7995C29.4087 37.8047 29.4487 37.8047 29.4882 37.7995L29.106 36.3564C29.0769 36.2076 28.994 36.0741 28.8726 35.9808C28.7512 35.8875 28.5995 35.8406 28.4456 35.8489C25.7831 35.9513 22.25 34.9822 20.8805 34.6481C20.7269 34.6118 20.566 34.6184 20.416 34.6671C20.2659 34.7158 20.1327 34.8047 20.0312 34.9238L19.5747 35.4396C19.8645 35.7247 20.2021 35.9586 20.5726 36.1308C22.8679 37.1855 27.5093 37.6491 29.3693 37.7995Z" fill="url(#paint2_linear_10_455)"/>
<path opacity="0.49" d="M33.3738 29.517C33.049 31.0248 32.1742 34.8695 30.8599 39.04C30.8554 39.0499 30.8474 39.058 30.8374 39.0627C30.8275 39.0674 30.8161 39.0685 30.8054 39.0657C30.7947 39.063 30.7853 39.0566 30.779 39.0476C30.7726 39.0387 30.7697 39.0279 30.7707 39.017C31.93 33.6332 32.8791 30.6635 33.2846 29.494C33.2891 29.4841 33.2971 29.476 33.3071 29.4713C33.3171 29.4666 33.3284 29.4655 33.3391 29.4683C33.3499 29.4711 33.3592 29.4775 33.3656 29.4864C33.3719 29.4953 33.3748 29.5062 33.3738 29.517Z" fill="#F6F6F6"/>
<path opacity="0.61" d="M15.5024 28.4312C15.5024 28.4312 16.0057 31.6744 15.6638 37.7098C15.7084 34.4582 15.6383 31.3256 15.5024 28.4312Z" fill="#EDEDED"/>
<path d="M14.2561 41.3289C15.063 40.4936 13.7126 39.5768 13.2327 38.7602C12.7529 37.9437 13.0076 37.6471 13.1563 36.8932C13.3049 36.1393 12.617 35.8741 11.8823 35.3979C12.2857 38.6475 12.6509 41.78 12.893 44.2485C12.7826 43.1228 13.445 42.1705 14.2561 41.3289Z" fill="#535F6C"/>
<path d="M18.7828 28.8195C18.3879 28.7548 17.9993 28.9156 17.7764 29.6987C17.7764 29.7059 17.7735 29.7128 17.7683 29.7179C17.7631 29.723 17.7561 29.7258 17.7488 29.7258C17.7415 29.7258 17.7345 29.723 17.7293 29.7179C17.7241 29.7128 17.7212 29.7059 17.7212 29.6987C17.7212 28.2368 18.4643 28.5313 18.8125 28.7506C18.8177 28.7565 18.8211 28.7637 18.8223 28.7714C18.8235 28.7791 18.8225 28.7869 18.8194 28.7941C18.8163 28.8013 18.8113 28.8075 18.8048 28.8119C18.7983 28.8164 18.7907 28.819 18.7828 28.8195V28.8195Z" fill="#C9D3D7"/>
<path d="M35.5268 25.7662C35.4918 25.9529 35.4196 26.1311 35.3144 26.2903C35.2504 26.4389 35.202 26.5936 35.17 26.7519C35.0639 27.1988 34.9577 27.6687 35.0787 28.1135C35.2189 28.6398 35.6541 29.0386 36.1085 29.3519C36.5629 29.6652 37.03 29.899 37.5545 29.8803C37.7331 29.8705 37.9099 29.8397 38.081 29.7884C38.3844 29.7229 38.6605 29.5685 38.873 29.3456C39.0279 29.1495 39.1096 28.9069 39.1044 28.6586C39.0983 28.4113 39.042 28.1678 38.9388 27.9422C38.7102 27.4292 38.3574 26.9789 37.9112 26.6307C37.466 26.2814 36.97 25.9998 36.4397 25.7954C36.2338 25.7286 35.7242 25.7641 35.5268 25.7662Z" fill="#B4B4B4"/>
<path d="M39.1235 26.9212C39.9947 26.9212 40.701 26.2265 40.701 25.3695C40.701 24.5126 39.9947 23.8179 39.1235 23.8179C38.2522 23.8179 37.5459 24.5126 37.5459 25.3695C37.5459 26.2265 38.2522 26.9212 39.1235 26.9212Z" fill="#C6C6C6"/>
<path d="M37 23.7112C38.3355 22.1741 38.4289 19.9521 39.274 18.1143C39.3508 17.9311 39.4538 17.7595 39.5797 17.6048C40.1127 16.9929 41.1764 17.0764 41.7794 17.6194C41.9764 17.7811 42.1235 17.9938 42.2041 18.2334C42.2824 18.5826 42.2498 18.9471 42.1107 19.2776C41.5777 20.8376 40.3229 22.101 39.9089 23.6965C39.8836 23.8577 39.8203 24.0107 39.7241 24.1435C39.5378 24.3016 39.2968 24.3831 39.0511 24.3711C38.6748 24.4215 38.2925 24.4066 37.9215 24.3272C37.7359 24.2857 37.5643 24.198 37.4231 24.0726C37.2818 23.9472 37.1756 23.7882 37.1147 23.6109L37 23.7112Z" fill="#E0E0E0"/>
<path d="M40.4205 22.4064C40.0978 22.4064 39.8727 22.5233 39.5309 22.3938C39.1891 22.2644 38.4098 22.0409 37.845 22.3479C37.2803 22.6549 38.3058 23.2292 38.3058 23.2292L39.1848 23.697L39.5606 23.6343L40.4205 22.4064Z" fill="#CECECE"/>
<path d="M42.3952 23.9162C42.2466 22.9723 41.7901 22.4732 41.1701 22.375C40.7829 22.3335 40.3911 22.3777 40.0235 22.5045C39.7193 22.5914 39.4207 22.6968 39.1296 22.8198C38.9137 22.9024 38.7112 23.0157 38.5288 23.1561C38.3704 23.2883 38.2449 23.4543 38.1618 23.6416C38.0787 23.8288 38.0401 24.0322 38.0491 24.2363C38.0581 24.4404 38.1145 24.6398 38.2138 24.8192C38.3131 24.9986 38.4528 25.1534 38.6222 25.2716C38.9625 25.4904 39.3682 25.5891 39.773 25.5514C40.1746 25.5151 40.5698 25.4288 40.9493 25.2945C41.3032 25.206 41.6383 25.0561 41.9387 24.8518C42.0881 24.7457 42.2082 24.6045 42.2879 24.4411C42.3677 24.2777 42.4045 24.0972 42.3952 23.9162V23.9162Z" fill="#DADADA"/>
<path d="M39.6226 22.6294C40.2149 22.8382 41.1555 23.5128 41.1725 24.6426C41.1895 25.6868 40.0132 25.6137 40.0132 25.6137L39.6226 22.6294Z" fill="#C6C6C6"/>
<path d="M37.7602 24.1831C37.8897 24.6739 38.2091 25.0954 38.6503 25.3576C39.0914 25.6198 39.6194 25.702 40.1213 25.5865C40.3075 25.547 40.4809 25.4628 40.6261 25.3415C40.7713 25.2201 40.8838 25.0654 40.9536 24.8911C40.9982 24.7071 40.9982 24.5154 40.9536 24.3314C40.7413 23.2246 39.6499 22.383 38.5076 22.3224C37.933 22.3113 37.3653 22.4476 36.8605 22.7179C36.3556 22.9881 35.9311 23.383 35.6285 23.8636C35.3611 24.2589 35.1907 24.7099 35.1307 25.181C35.0706 25.6521 35.1226 26.1305 35.2824 26.5785C35.376 26.7988 35.4852 27.0124 35.6094 27.2175L36.034 27.9777C36.1832 28.2838 36.3916 28.5583 36.6476 28.7859C36.9745 29.0129 37.3624 29.1393 37.7624 29.1493C38.5925 29.2078 39.5544 28.9175 39.8686 28.1573C39.9539 27.9101 39.9816 27.6471 39.9496 27.3879C39.9176 27.1288 39.8268 26.88 39.6839 26.6599C39.3961 26.2216 39.0425 25.8287 38.635 25.4946C38.2868 25.1501 37.8728 24.6656 37.7602 24.1831Z" fill="#E3E3E3"/>
<path d="M39.837 28.306C39.527 28.3541 38.5461 28.4083 38.2403 27.383C37.9813 26.4996 38.8263 26.1613 38.4824 25.7457C37.7987 24.9103 37.6522 24.2212 37.7413 23.9351C37.8311 24.3337 38.0103 24.7075 38.2658 25.0294C38.3953 25.1897 38.5557 25.3231 38.738 25.422C38.9202 25.521 39.1205 25.5834 39.3274 25.6058C39.4249 25.6065 39.5219 25.6192 39.6162 25.6433C39.699 25.6781 39.7721 25.7319 39.8293 25.8002C39.8866 25.8686 39.9263 25.9494 39.9453 26.036C39.9792 26.21 39.9921 26.3873 39.9835 26.5643C39.9837 26.8444 40.0093 27.124 40.0599 27.3997C40.0854 27.4891 40.0854 27.5838 40.0599 27.6732C40.0356 27.7266 40.001 27.7749 39.958 27.8153C39.8128 27.9651 39.6495 28.0969 39.4718 28.2079L39.837 28.306Z" fill="#BEBEBE"/>
<path d="M42.8051 26.7314C42.6565 25.7874 42.1979 25.2883 41.58 25.1902C41.3013 25.1539 41.0181 25.1702 40.7456 25.2382C40.5739 25.4093 40.3581 25.5313 40.1213 25.5911C39.9253 25.6448 39.7209 25.6625 39.5183 25.6433C39.3097 25.724 39.1144 25.8345 38.9387 25.9712C38.7796 26.103 38.6534 26.2689 38.5697 26.4562C38.4861 26.6435 38.4473 26.8472 38.4564 27.0516C38.4654 27.2559 38.522 27.4556 38.6218 27.635C38.7216 27.8145 38.862 27.969 39.0321 28.0867C39.3725 28.3054 39.778 28.4047 40.1829 28.3687C40.5843 28.3302 40.9794 28.2432 41.3592 28.1097C41.7136 28.0193 42.0487 27.8672 42.3486 27.6607C42.4967 27.5548 42.6159 27.4146 42.6955 27.2524C42.7752 27.0903 42.8128 26.9113 42.8051 26.7314V26.7314Z" fill="#E0E0E0"/>
<path d="M35.1553 25.096L35.2085 24.8433C35.1872 24.9268 35.1702 25.0103 35.1553 25.096Z" fill="#E2E1E1"/>
<path d="M35.1508 25.1294C35.0671 25.6128 35.1154 26.1093 35.2909 26.5683C35.3845 26.7886 35.4938 27.0021 35.6179 27.2073L36.0426 27.9675C36.1917 28.2736 36.4002 28.5481 36.6562 28.7757C36.983 29.0026 37.371 29.1291 37.7709 29.1391C38.5374 29.1934 39.4164 28.949 39.7922 28.3037C36.429 29.6549 35.1232 25.7643 35.1508 25.1294Z" fill="#D4D4D4"/>
<path d="M36.0427 23.5276C36.3739 23.2039 37.1532 22.1409 38.9494 22.5022C40.7457 22.8635 40.958 24.5634 40.7903 24.8954C40.6226 25.2275 39.9219 25.7496 39.1172 24.7409C38.3125 23.7322 38.1256 23.5464 38.0343 23.7197C37.943 23.893 37.8453 23.1872 37.7158 23.5526C37.5863 23.9181 37.4058 23.9035 37.4058 23.6758C37.4058 23.4482 36.3442 23.7448 35.9196 24.4548C35.4949 25.1648 35.2189 24.3378 36.0427 23.5276Z" fill="#F4F4F4"/>
<path d="M39.8837 26.184C40.3699 26.184 40.733 25.7977 41.3466 25.6431C41.9602 25.4886 42.6206 26.0608 42.7416 26.4263C42.5505 25.6765 42.128 25.2714 41.5802 25.1858C41.3014 25.1495 41.0182 25.1658 40.7457 25.2338C40.574 25.4049 40.3582 25.5269 40.1215 25.5867C39.9255 25.6404 39.721 25.6581 39.5185 25.6389C39.3099 25.7196 39.1146 25.8301 38.9388 25.9668C38.7813 26.1002 38.6562 26.2666 38.5728 26.4538C38.4894 26.641 38.4498 26.8443 38.4569 27.0486C38.4569 27.0883 38.4569 27.128 38.4696 27.1676C38.6437 26.4931 39.4251 26.1736 39.8837 26.184Z" fill="#D4D4D4"/>
<path d="M39.9197 22.6714C39.6479 22.684 40.8667 22.2684 41.5504 22.6318C42.2341 22.9951 42.3211 23.96 42.2511 24.1667C42.181 24.3735 41.803 24.6011 41.4018 23.8806C41.0005 23.1601 40.4888 22.6464 39.9197 22.6714Z" fill="#EDEDED"/>
<path d="M42.1089 25.8542C41.6333 25.7352 41.5526 25.6057 40.9602 25.9356C40.5407 26.2032 40.068 26.3798 39.5737 26.4536C39.1979 26.4912 38.7605 28.1493 40.0599 28.1243C41.3594 28.0992 42.4868 27.3892 42.576 27.0989C42.8053 26.7313 42.5654 25.967 42.1089 25.8542Z" fill="#EDEDED"/>
<path d="M40.6882 21.5686C41.1362 20.8773 41.8071 19.783 42.0024 19.0082C42.0537 18.8485 42.0713 18.6802 42.0542 18.5136C42.037 18.347 41.9856 18.1856 41.9029 18.0392C41.8203 17.8929 41.7081 17.7646 41.5734 17.6622C41.4386 17.5599 41.2841 17.4857 41.1192 17.444C40.5353 17.2895 40.134 17.2958 39.7306 18.0705C39.4223 18.6372 39.2074 19.2483 39.0936 19.8812C39.0787 20.1297 39.3463 20.349 39.7306 20.5077C40.1149 20.6664 39.4906 20.6518 39.1594 20.5077C38.8282 20.3636 38.2783 21.7127 38.4566 21.8818C38.635 22.051 40.1977 22.3287 40.6882 21.5686Z" fill="#F4F4F4"/>
<path d="M36.4225 24.1459C36.0425 24.4445 35.448 25.1399 35.4904 25.7727C35.509 25.9955 35.5932 26.2082 35.7327 26.3848C35.8723 26.5613 36.0611 26.6941 36.276 26.7668C36.4501 26.7981 36.2293 27.4288 36.7644 27.7817C37.2994 28.1346 38.0277 28.2391 37.9853 27.7023C37.9428 27.1656 38.1785 26.2572 37.5606 26.3094C36.9427 26.3616 37.3483 26.1925 37.5797 25.9523C37.9598 25.5618 37.3759 23.3899 36.4225 24.1459Z" fill="#F4F4F4"/>
<path d="M35.2633 28.1931C35.4329 28.5385 35.6703 28.8475 35.9619 29.1023C36.2534 29.3572 36.5932 29.5528 36.9619 29.6779C38.0873 30.0496 38.6329 29.3542 38.0639 29.3354C37.4949 29.3166 36.567 29.2017 36.0256 28.3371C35.4247 27.3681 34.9724 27.7273 35.2633 28.1931Z" fill="#D4D4D4"/>
<path d="M7.32774 35.9908C7.50822 35.7611 7.58041 35.4646 7.75239 35.2286C8.09211 34.7649 8.73546 34.6313 9.31723 34.6229C10.3512 34.6104 11.4405 34.909 12.1518 35.6441C12.3938 35.8906 12.5998 36.2205 12.5361 36.5568C12.4905 36.7176 12.4256 36.8725 12.3429 37.0183C12.1857 37.3587 12.1305 37.7409 11.9182 38.0625C11.6813 38.4039 11.3256 38.6482 10.9182 38.7496C10.514 38.85 10.0952 38.8811 9.6803 38.8414C9.27669 38.8287 8.87793 38.7511 8.49977 38.6117C8.11904 38.471 7.79748 38.2084 7.58678 37.8662C7.46585 37.6318 7.38616 37.3791 7.3511 37.1185C7.30785 36.7442 7.30003 36.3666 7.32774 35.9908V35.9908Z" fill="#C2C2C2"/>
<path d="M10.1707 35.5921C10.4998 35.6736 11.5741 36.1998 11.9287 36.8201C12.2833 37.4403 12.4914 36.6112 12.4171 36.3523C12.3428 36.0933 12.3236 35.4418 10.487 34.8528C9.54219 34.5479 9.37021 35.3916 10.1707 35.5921Z" fill="#DEDEDE"/>
<path d="M17.7446 19.7854L19.0313 21.4018L22.1886 20.0694L25.1102 21.1115L22.2056 18.4321L18.4177 18.9521L17.7446 19.7854Z" fill="#15162C"/>
<path d="M28.8765 21.4329L31.0719 19.6118L34.5052 20.8356L34.4564 21.3765L33.1718 22.2515L31.1993 20.7562L28.8765 21.4329Z" fill="#15162C"/>
<path opacity="0.14" d="M32.998 23.981C32.8593 23.8249 32.6856 23.7026 32.4905 23.6239C32.403 23.5877 32.3119 23.5604 32.2188 23.5424C32.1626 23.5323 32.1059 23.5253 32.0489 23.5216L31.6242 23.4923L29.9554 23.3796C29.8186 23.3705 29.6811 23.3818 29.5477 23.413C29.2646 23.4796 29.0098 23.6319 28.8194 23.8484C28.6289 24.065 28.5123 24.3349 28.4861 24.62C28.4652 24.8567 28.5061 25.0946 28.605 25.3113C28.697 25.5084 28.8355 25.681 29.0091 25.8147C29.1827 25.9484 29.3863 26.0393 29.6029 26.0798C29.6591 26.0899 29.7158 26.0968 29.7728 26.1007L31.1996 26.1989L31.8578 26.2427C32.0614 26.2575 32.2657 26.2254 32.4544 26.1487C32.5076 26.1285 32.5594 26.1047 32.6094 26.0777C32.7913 25.9804 32.9487 25.8442 33.07 25.6792C33.1913 25.5142 33.2734 25.3245 33.3102 25.1241C33.3471 24.9237 33.3378 24.7177 33.283 24.5214C33.2283 24.325 33.1294 24.1432 32.9937 23.9894L32.998 23.981ZM20.2203 24.1126C20.2203 24.1355 20.2203 24.1564 20.2203 24.1794C20.2203 24.1564 20.2203 24.1335 20.2203 24.1105V24.1126ZM24.3224 23.8641C24.2425 23.6383 24.1038 23.4372 23.9201 23.2807C23.7364 23.1242 23.5142 23.0179 23.2756 22.9723C23.2195 22.9622 23.1628 22.9552 23.1058 22.9514L21.0229 22.8094C20.6575 22.7846 20.2968 22.902 20.0188 23.1365C19.7407 23.3709 19.5675 23.7035 19.5366 24.0624C19.5051 24.399 19.602 24.735 19.8084 25.0052C20.0148 25.2754 20.316 25.4604 20.6534 25.5243C20.7096 25.5345 20.7663 25.5414 20.8233 25.5452L22.9062 25.6872C22.9846 25.6945 23.0635 25.6945 23.1419 25.6872C23.4623 25.6542 23.7613 25.513 23.9878 25.2876C24.2143 25.0622 24.3543 24.7665 24.384 24.4509C24.4063 24.2532 24.3853 24.0531 24.3224 23.8641V23.8641Z" fill="white"/>
<path d="M32.8789 24.3982C32.7624 24.182 32.5711 24.0138 32.3396 23.9242C32.2798 23.9011 32.218 23.8837 32.1549 23.872C32.112 23.8642 32.0688 23.8586 32.0254 23.8553L31.3205 23.8072L29.9425 23.7153C29.6694 23.6979 29.4002 23.7858 29.192 23.9605C28.9838 24.1352 28.8532 24.3829 28.8278 24.6509C28.8197 24.7203 28.8197 24.7904 28.8278 24.8598C28.8526 25.0765 28.9475 25.2797 29.0984 25.4394C29.2494 25.5992 29.4485 25.7071 29.6664 25.7473C29.7086 25.7551 29.7511 25.7606 29.7938 25.764L31.3587 25.8684L31.8789 25.9039C32.0751 25.9179 32.2712 25.8758 32.4437 25.7828C32.4791 25.7644 32.5132 25.7435 32.5456 25.7202C32.6711 25.6338 32.7762 25.5216 32.8535 25.3915C32.9309 25.2613 32.9787 25.1163 32.9936 24.9663C33.0126 24.77 32.9728 24.5725 32.8789 24.3982V24.3982ZM24.0016 23.9806L23.9761 23.92C23.9098 23.7642 23.8053 23.627 23.6719 23.5206C23.5385 23.4142 23.3804 23.3419 23.2118 23.3102C23.1693 23.3102 23.1247 23.2977 23.0822 23.2935L20.9993 23.1536C20.7262 23.1382 20.4576 23.2272 20.2495 23.4019C20.0414 23.5766 19.91 23.8235 19.8825 24.0912C19.8723 24.2155 19.8838 24.3405 19.9165 24.4609C19.9689 24.645 20.0727 24.811 20.216 24.9401C20.3593 25.0693 20.5365 25.1565 20.7276 25.1918C20.7695 25.2006 20.8121 25.2062 20.855 25.2085L22.9379 25.3484C23.0754 25.3592 23.2138 25.3407 23.3434 25.2941C23.536 25.2307 23.7057 25.1137 23.832 24.9573C23.9582 24.8008 24.0356 24.6117 24.0547 24.4128C24.069 24.2632 24.0509 24.1123 24.0016 23.9701V23.9806Z" fill="#5EA3CD"/>
<path d="M23.0587 23.6174L20.9758 23.4754C20.7919 23.4625 20.6102 23.5209 20.4694 23.6379C20.3286 23.7549 20.2399 23.9214 20.2221 24.1019C20.2137 24.1941 20.224 24.287 20.2526 24.3752C20.2812 24.4634 20.3274 24.5451 20.3885 24.6156C20.4496 24.686 20.5244 24.7437 20.6085 24.7853C20.6926 24.8269 20.7842 24.8516 20.8782 24.8579L22.9611 24.9978C23.1453 25.0112 23.3275 24.9531 23.4688 24.836C23.6101 24.719 23.6991 24.5521 23.7169 24.3713V24.3713C23.7245 24.2792 23.7134 24.1865 23.6843 24.0987C23.6552 24.0108 23.6088 23.9295 23.5476 23.8594C23.4864 23.7893 23.4117 23.7319 23.3278 23.6903C23.2439 23.6488 23.1524 23.624 23.0587 23.6174V23.6174Z" fill="white"/>
<path d="M32.0021 24.1877L29.9192 24.0457C29.7353 24.0329 29.5536 24.0912 29.4128 24.2082C29.272 24.3252 29.1832 24.4917 29.1654 24.6722V24.6722C29.157 24.7644 29.1674 24.8573 29.196 24.9455C29.2246 25.0338 29.2708 25.1155 29.3319 25.1859C29.393 25.2563 29.4678 25.314 29.5518 25.3556C29.6359 25.3972 29.7276 25.4219 29.8215 25.4282L31.9065 25.5702C32.0903 25.5825 32.2717 25.524 32.4124 25.407C32.5531 25.2901 32.642 25.1239 32.6603 24.9437C32.669 24.8513 32.6588 24.7581 32.6302 24.6696C32.6016 24.5811 32.5552 24.4992 32.4938 24.4287C32.4324 24.3582 32.3573 24.3006 32.2728 24.2592C32.1883 24.2178 32.0963 24.1935 32.0021 24.1877V24.1877Z" fill="white"/>
<path d="M26.144 21.4478L26.2778 21.5919C26.3907 21.486 26.5239 21.4033 26.6696 21.3486C26.8153 21.2939 26.9706 21.2682 27.1265 21.2731C27.2824 21.2779 27.4358 21.3132 27.5777 21.3769C27.7196 21.4406 27.8472 21.5314 27.9531 21.6441L28.0953 21.5104C27.9719 21.3795 27.8232 21.274 27.6581 21.1999C27.4929 21.1258 27.3144 21.0847 27.133 21.0788C26.9515 21.073 26.7707 21.1026 26.601 21.1659C26.4312 21.2293 26.2759 21.3251 26.144 21.4478V21.4478ZM26.4137 21.7339L26.5496 21.878C26.6249 21.8074 26.7137 21.7522 26.8108 21.7157C26.908 21.6793 27.0116 21.6622 27.1156 21.6655C27.2195 21.6688 27.3218 21.6924 27.4163 21.735C27.5109 21.7776 27.5959 21.8382 27.6664 21.9135L27.8087 21.7777C27.7204 21.6841 27.6142 21.6086 27.496 21.5556C27.3779 21.5026 27.2503 21.4733 27.1205 21.4692C26.9907 21.4651 26.8614 21.4864 26.7401 21.5318C26.6188 21.5773 26.5078 21.646 26.4137 21.7339V21.7339ZM26.6834 22.02L26.8192 22.1641C26.8569 22.1288 26.9012 22.1013 26.9498 22.0831C26.9983 22.0648 27.0501 22.0562 27.102 22.0578C27.1539 22.0593 27.205 22.071 27.2524 22.0921C27.2997 22.1132 27.3423 22.1434 27.3777 22.1808L27.522 22.0471C27.469 21.9908 27.4051 21.9454 27.3341 21.9136C27.2632 21.8817 27.1864 21.864 27.1085 21.8614C27.0305 21.8589 26.9527 21.8716 26.8798 21.8988C26.8068 21.9261 26.74 21.9672 26.6834 22.02ZM27.2609 22.3541C27.2447 22.3245 27.2209 22.2996 27.1918 22.282C27.1627 22.2644 27.1294 22.2547 27.0953 22.2539C27.0687 22.2529 27.0423 22.2572 27.0174 22.2666C26.9926 22.2759 26.97 22.29 26.9509 22.3082C26.9149 22.3448 26.8938 22.3931 26.8914 22.4439C26.8897 22.47 26.8933 22.4962 26.902 22.521C26.9108 22.5457 26.9244 22.5685 26.9422 22.5879C26.9601 22.6074 26.9816 22.6232 27.0057 22.6343C27.0298 22.6454 27.0559 22.6517 27.0825 22.6528C27.1093 22.6548 27.1363 22.6513 27.1617 22.6427C27.1871 22.6341 27.2104 22.6205 27.2303 22.6027C27.2502 22.5849 27.2662 22.5634 27.2773 22.5393C27.2884 22.5152 27.2943 22.4891 27.2948 22.4627C27.2972 22.4211 27.2852 22.3799 27.2609 22.3458V22.3541Z" fill="white"/>
<path d="M17.9036 20.9424L15.7294 21.2723C15.6798 21.28 15.6351 21.3058 15.604 21.3445C15.5729 21.3832 15.5578 21.432 15.5616 21.4812L15.7888 26.2009H15.8079C15.8567 25.259 16.154 21.6649 17.9121 20.9799C17.9146 20.9794 17.9169 20.9784 17.919 20.9769C17.9211 20.9755 17.9229 20.9736 17.9243 20.9715C17.9257 20.9694 17.9266 20.967 17.9271 20.9645C17.9275 20.962 17.9275 20.9594 17.9269 20.957C17.9264 20.9545 17.9253 20.9522 17.9238 20.9501C17.9224 20.948 17.9205 20.9463 17.9183 20.9449C17.9161 20.9435 17.9137 20.9426 17.9112 20.9422C17.9087 20.9417 17.9061 20.9418 17.9036 20.9424V20.9424Z" fill="#123568"/>
<path d="M19.1353 35.5859C19.5599 36.0036 20.7001 37.4279 29.4097 38.1358C19.6724 38.4742 19.1353 35.5859 19.1353 35.5859Z" fill="#C9D3D7"/>
<path d="M25.7469 48.6153C21.2032 48.6801 17.3728 48.3647 16.1137 47.757C16.0925 43.7891 16.4365 39.6896 16.5787 38.1108H16.5617C21.094 38.2805 25.5789 39.0806 29.883 40.4874L29.8936 40.4603C28.9561 43.2317 27.7938 45.9246 26.4179 48.513L25.7469 48.6153Z" fill="#50606A"/>
<path d="M26.6088 48.3961C21.789 48.2332 16.9756 49.0998 16.1157 47.757L16.1263 46.1344C16.1111 43.586 16.2529 41.0391 16.551 38.5076L16.585 38.1108C20.0586 38.2445 24.5726 38.6538 29.5368 40.3141L29.8935 40.4853C29.2395 42.3795 28.3945 45.0797 26.6173 48.3961H26.6088Z" fill="#929FA8"/>
<path d="M25.3118 39.5682C24.8744 39.4722 24.4328 39.3803 23.989 39.2967H23.9402C23.3032 39.1735 22.6493 39.0649 21.9974 38.971C21.8964 38.956 21.7934 38.9809 21.711 39.0404C21.6287 39.0999 21.5736 39.1891 21.5579 39.2884C21.4327 40.0548 21.2904 40.8839 21.1333 41.7485C21.114 41.8473 21.1353 41.9497 21.1926 42.0331C21.2499 42.1165 21.3386 42.1741 21.439 42.1933L21.6068 42.2246L22.1885 42.3374C22.9486 42.4899 23.7449 42.6569 24.5644 42.8428C24.6644 42.8654 24.7693 42.8482 24.8564 42.795C24.9435 42.7418 25.0057 42.6569 25.0294 42.5588C25.2418 41.667 25.4435 40.8171 25.6112 40.0277C25.6227 39.9781 25.6241 39.9268 25.6153 39.8768C25.6064 39.8267 25.5875 39.7789 25.5596 39.7361C25.5317 39.6933 25.4954 39.6565 25.4529 39.6276C25.4104 39.5988 25.3624 39.5786 25.3118 39.5682V39.5682ZM24.4859 43.0746C23.4604 42.8428 22.4773 42.6381 21.5494 42.4606L21.3859 42.4293C21.2852 42.4108 21.1812 42.432 21.0962 42.4882C21.0112 42.5445 20.9521 42.6313 20.9316 42.73C20.7617 43.5654 20.5727 44.4362 20.3625 45.3071C20.3505 45.356 20.3485 45.4068 20.3565 45.4566C20.3646 45.5063 20.3825 45.554 20.4094 45.5969C20.4362 45.6398 20.4714 45.677 20.5129 45.7065C20.5544 45.736 20.6015 45.7571 20.6513 45.7686C21.4496 45.9524 22.3074 46.1382 23.2141 46.3262H23.2586L23.626 46.4035C23.7181 46.4156 23.8115 46.3949 23.8894 46.3451C23.9674 46.2953 24.0245 46.2197 24.0506 46.132C24.2629 45.4428 24.4392 44.7766 24.6048 44.1543C24.66 43.9455 24.7152 43.7366 24.7683 43.5278C24.7902 43.431 24.773 43.3296 24.7203 43.245C24.6676 43.1604 24.5835 43.0993 24.4859 43.0746V43.0746ZM21.0526 38.8436C21.0485 38.8421 21.044 38.8421 21.0399 38.8436C21.0175 38.8346 20.9939 38.829 20.9698 38.8269C19.7977 38.6807 18.6151 38.5763 17.4303 38.5136C17.3297 38.5089 17.2311 38.5429 17.1554 38.6084C17.0798 38.6739 17.0329 38.7657 17.0248 38.8645C16.9759 39.4534 16.9186 40.2115 16.8613 41.0844C16.8555 41.1799 16.8863 41.274 16.9476 41.3483C17.0089 41.4225 17.0963 41.4714 17.1925 41.4854L17.2859 41.4979C18.1841 41.6274 19.2436 41.7944 20.4262 42.0054C20.5275 42.0231 20.6318 42.0008 20.7165 41.9433C20.8012 41.8858 20.8594 41.7978 20.8785 41.6984C21.0398 40.8442 21.1821 40.0277 21.3031 39.2654C21.3189 39.1773 21.3023 39.0866 21.2565 39.0093C21.2106 38.9321 21.1383 38.8734 21.0526 38.8436V38.8436ZM27.8024 43.8974C27.0486 43.6886 26.3055 43.5048 25.5794 43.3294L25.4944 43.3085C25.3951 43.2851 25.2904 43.3011 25.2029 43.3531C25.1155 43.4051 25.0524 43.4889 25.0273 43.5863L24.8596 44.2274C24.7003 44.8268 24.522 45.4679 24.3266 46.1299C24.3115 46.1807 24.3072 46.234 24.3142 46.2865C24.3212 46.339 24.3393 46.3895 24.3673 46.4347C24.3953 46.4799 24.4326 46.5189 24.4768 46.5491C24.5209 46.5793 24.5711 46.6002 24.6239 46.6102L24.7746 46.6395H24.7874L24.9233 46.6645L24.9785 46.675L25.1144 46.7021L25.229 46.723C25.6898 46.8128 26.1611 46.8984 26.641 46.984C26.7267 46.9993 26.8153 46.9858 26.8923 46.9457C26.9693 46.9055 27.0304 46.8411 27.0656 46.7627C27.4202 45.9607 27.7557 45.1609 28.0593 44.4028C28.0788 44.3532 28.0875 44.3001 28.0849 44.247C28.0824 44.1939 28.0685 44.1419 28.0443 44.0943C28.0202 44.0467 27.9862 44.0047 27.9445 43.9708C27.9028 43.9369 27.8544 43.9119 27.8024 43.8974V43.8974ZM23.4667 46.6353C22.4815 46.4264 21.5558 46.2301 20.6853 46.0317L20.5855 46.0088C20.4867 45.986 20.3828 46.0024 20.2962 46.0544C20.2096 46.1064 20.1473 46.1897 20.1226 46.2865C19.9634 46.913 19.7935 47.5166 19.613 48.1222C19.5984 48.1702 19.5935 48.2206 19.5987 48.2704C19.6039 48.3203 19.6191 48.3686 19.6433 48.4127C19.6676 48.4567 19.7005 48.4956 19.7401 48.5271C19.7797 48.5586 19.8253 48.5821 19.8742 48.5963C20.4772 48.7675 21.1481 48.9325 21.8573 49.0724L22.0696 49.1142L22.1439 49.1288C22.3372 49.1643 22.5325 49.1998 22.7257 49.2311C22.8153 49.2443 22.9069 49.2263 22.9844 49.1802C23.0619 49.134 23.1207 49.0627 23.1504 48.9784C23.3627 48.3519 23.575 47.7254 23.764 47.1198C23.7795 47.0687 23.784 47.015 23.7772 46.9622C23.7704 46.9093 23.7524 46.8584 23.7244 46.8128C23.6964 46.7672 23.659 46.7278 23.6146 46.6972C23.5703 46.6667 23.5199 46.6456 23.4667 46.6353V46.6353ZM20.3923 42.2497C20.3923 42.2497 20.3795 42.2497 20.371 42.2497C19.1947 42.0409 18.1395 41.8738 17.2477 41.7464C17.1945 41.7385 17.1401 41.7416 17.0882 41.7555C17.0362 41.7694 16.9878 41.7939 16.946 41.8273C16.9042 41.8608 16.87 41.9024 16.8455 41.9496C16.8211 41.9968 16.8069 42.0485 16.804 42.1014C16.7636 42.8491 16.7254 43.6552 16.6999 44.4926C16.697 44.5785 16.7237 44.6629 16.7758 44.7319C16.8278 44.8009 16.9021 44.8505 16.9866 44.8727C17.7488 45.0815 18.6427 45.2904 19.6491 45.5389C19.6733 45.5454 19.6983 45.5489 19.7234 45.5493V45.5493C19.813 45.5531 19.9011 45.5259 19.9724 45.4725C20.0438 45.4191 20.0939 45.3429 20.1141 45.257C20.3264 44.3945 20.5112 43.5341 20.6789 42.6987C20.7006 42.6018 20.6827 42.5005 20.629 42.4165C20.5754 42.3325 20.4904 42.2726 20.3923 42.2497V42.2497ZM29.0763 40.579C28.203 40.3006 27.3119 40.0506 26.4032 39.8293L26.3204 39.8084C26.2699 39.7961 26.2173 39.794 26.166 39.8021C26.1146 39.8103 26.0654 39.8285 26.0214 39.8559C25.9774 39.8832 25.9394 39.9189 25.9098 39.961C25.8802 40.0031 25.8595 40.0506 25.849 40.1008C25.6813 40.8839 25.4881 41.7276 25.2715 42.6068C25.2595 42.6555 25.2574 42.706 25.2653 42.7555C25.2732 42.805 25.291 42.8525 25.3177 42.8952C25.3443 42.9379 25.3793 42.975 25.4205 43.0043C25.4618 43.0337 25.5086 43.0547 25.5581 43.0663C26.3437 43.2563 27.1506 43.461 27.968 43.6928H28.0147H28.0636H28.0466C28.129 43.6992 28.2113 43.6793 28.2813 43.636C28.3513 43.5927 28.4052 43.5284 28.4351 43.4526C28.7918 42.5337 29.0933 41.7088 29.3226 41.0635C29.3399 41.0156 29.3472 40.9647 29.3441 40.9139C29.341 40.8632 29.3275 40.8135 29.3046 40.7679C29.2816 40.7224 29.2496 40.6818 29.2104 40.6486C29.1712 40.6155 29.1256 40.5904 29.0763 40.5748V40.579Z" fill="#405866"/>
<path d="M19.8742 40.8067L18.8402 40.6752C18.801 40.6702 18.7615 40.6807 18.7302 40.7044C18.699 40.7281 18.6786 40.763 18.6735 40.8015C18.6684 40.84 18.6791 40.8789 18.7032 40.9097C18.7273 40.9404 18.7628 40.9605 18.802 40.9655L19.8339 41.097C19.873 41.1023 19.9127 41.092 19.9441 41.0685C19.9756 41.045 19.9962 41.0102 20.0016 40.9717C20.0069 40.9332 19.9965 40.8942 19.9726 40.8633C19.9487 40.8323 19.9133 40.812 19.8742 40.8067V40.8067ZM19.9506 40.2262L18.9187 40.0946C18.8796 40.0893 18.8399 40.0996 18.8085 40.1231C18.777 40.1466 18.7564 40.1814 18.751 40.2199C18.7457 40.2584 18.7561 40.2974 18.78 40.3284C18.8039 40.3593 18.8393 40.3796 18.8784 40.3849L19.9124 40.5165C19.9512 40.5212 19.9904 40.5107 20.0214 40.4873C20.0524 40.4638 20.0727 40.4293 20.078 40.3912C20.0829 40.3527 20.0723 40.314 20.0485 40.2832C20.0247 40.2523 19.9896 40.2319 19.9506 40.2262V40.2262ZM20.0271 39.6477L18.9952 39.514C18.956 39.5091 18.9165 39.5196 18.8852 39.5433C18.854 39.567 18.8336 39.6019 18.8285 39.6404C18.8234 39.6789 18.8341 39.7178 18.8582 39.7485C18.8823 39.7793 18.9178 39.7993 18.957 39.8043L19.9889 39.9359C20.0279 39.9407 20.0673 39.9302 20.0987 39.9068C20.13 39.8834 20.1508 39.8489 20.1566 39.8106C20.159 39.7915 20.1575 39.7722 20.1523 39.7537C20.1471 39.7352 20.1382 39.7179 20.1261 39.7028C20.1141 39.6876 20.0992 39.675 20.0822 39.6655C20.0652 39.6561 20.0465 39.65 20.0271 39.6477V39.6477ZM18.4049 39.4389L18.2563 39.4201C18.2175 39.4153 18.1783 39.4258 18.1473 39.4493C18.1163 39.4727 18.096 39.5072 18.0907 39.5454C18.0858 39.5838 18.0964 39.6225 18.1202 39.6534C18.144 39.6842 18.1791 39.7046 18.2181 39.7103L18.3667 39.7291C18.3861 39.7316 18.4058 39.7303 18.4246 39.7253C18.4435 39.7203 18.4612 39.7117 18.4766 39.6999C18.4921 39.6882 18.5051 39.6736 18.5148 39.6569C18.5246 39.6402 18.5309 39.6219 18.5334 39.6028C18.5359 39.5837 18.5345 39.5644 18.5294 39.5458C18.5244 39.5273 18.5156 39.5099 18.5037 39.4947C18.4917 39.4794 18.4769 39.4667 18.4599 39.4571C18.443 39.4475 18.4243 39.4413 18.4049 39.4389V39.4389ZM18.3285 40.0194L18.1798 40.0006C18.141 39.9959 18.1019 40.0064 18.0709 40.0298C18.0399 40.0533 18.0195 40.0878 18.0142 40.1259C18.0094 40.1643 18.02 40.2031 18.0438 40.2339C18.0676 40.2648 18.1027 40.2852 18.1416 40.2909L18.2903 40.3097C18.3294 40.3147 18.3689 40.3042 18.4002 40.2805C18.4315 40.2568 18.4519 40.2219 18.4569 40.1834C18.462 40.1449 18.4513 40.106 18.4272 40.0752C18.4031 40.0445 18.3676 40.0244 18.3285 40.0194V40.0194ZM18.2499 40.6L18.1034 40.5791C18.064 40.5744 18.0243 40.5851 17.9929 40.6089C17.9615 40.6328 17.941 40.6678 17.9357 40.7065C17.9333 40.7256 17.9348 40.7449 17.94 40.7634C17.9452 40.7819 17.9541 40.7992 17.9661 40.8143C17.9781 40.8295 17.9931 40.8421 18.0101 40.8516C18.0271 40.861 18.0458 40.8671 18.0652 40.8694L18.2117 40.8903C18.2511 40.895 18.2908 40.8843 18.3222 40.8605C18.3536 40.8366 18.3741 40.8016 18.3794 40.7629C18.3818 40.7438 18.3803 40.7245 18.3751 40.706C18.3699 40.6875 18.361 40.6702 18.349 40.655C18.337 40.6399 18.322 40.6273 18.305 40.6178C18.288 40.6084 18.2693 40.6023 18.2499 40.6V40.6Z" fill="#6D8C9B"/>
<path d="M22.7873 43.7261C22.6426 43.6982 22.4927 43.7131 22.3565 43.769C22.2204 43.8249 22.1043 43.9193 22.0227 44.0401C21.9412 44.161 21.8979 44.303 21.8984 44.4481C21.899 44.5931 21.9433 44.7348 22.0257 44.8551C22.1081 44.9754 22.225 45.0689 22.3615 45.1239C22.498 45.1788 22.648 45.1926 22.7926 45.1637C22.9371 45.1347 23.0696 45.0642 23.1734 44.9611C23.2771 44.858 23.3475 44.7269 23.3754 44.5845C23.4123 44.394 23.3711 44.197 23.261 44.0362C23.1508 43.8755 22.9806 43.764 22.7873 43.7261V43.7261ZM23.0676 44.6179L22.7172 44.551L22.6493 44.8956L22.4709 44.8601L22.5389 44.5155L22.1885 44.4487L22.2225 44.2754L22.5728 44.3422L22.6408 43.9976L22.8191 44.031L22.7512 44.3756L23.1015 44.4424L23.0676 44.6179Z" fill="#6D8C9B"/>
<path d="M21.9379 46.9465C21.7935 46.9189 21.6442 46.9341 21.5086 46.9901C21.3731 47.0461 21.2575 47.1403 21.1764 47.261C21.0954 47.3816 21.0525 47.5231 21.0532 47.6677C21.054 47.8123 21.0983 47.9534 21.1806 48.0732C21.2629 48.193 21.3794 48.2861 21.5156 48.3408C21.6517 48.3954 21.8012 48.4091 21.9452 48.3802C22.0892 48.3512 22.2213 48.2809 22.3247 48.1781C22.428 48.0753 22.4981 47.9447 22.526 47.8027C22.5634 47.6125 22.5224 47.4154 22.4121 47.2548C22.3018 47.0943 22.1313 46.9834 21.9379 46.9465V46.9465ZM22.2181 47.8361L21.3391 47.667L21.3752 47.4936L22.2521 47.6607L22.2181 47.8361Z" fill="#6D8C9B"/>
<path d="M24.2734 40.3851L23.7872 40.264L23.6874 40.7777L23.9337 40.6128C24.0106 40.7347 24.0367 40.8811 24.0066 41.0215C23.9766 41.1619 23.8927 41.2856 23.7723 41.3667C23.6745 41.4327 23.5575 41.4656 23.4389 41.4606L23.4092 41.6444C23.5748 41.6556 23.7394 41.6114 23.8763 41.5191C24.0387 41.4111 24.1518 41.245 24.1915 41.0562C24.2312 40.8674 24.1943 40.6708 24.0887 40.5083L24.2734 40.3851ZM23.1459 40.4478C23.2447 40.382 23.3623 40.3491 23.4814 40.3538L23.5111 40.17C23.3727 40.1611 23.2345 40.1902 23.1119 40.254C22.9893 40.3178 22.8871 40.4138 22.8166 40.5314C22.7462 40.6489 22.7103 40.7834 22.713 40.9198C22.7156 41.0562 22.7567 41.1892 22.8317 41.304L22.647 41.4293L23.1332 41.5483L23.233 41.0367L22.9867 41.2017C22.9092 41.0805 22.882 40.9346 22.9109 40.7942C22.9397 40.6539 23.0224 40.5298 23.1417 40.4478H23.1459Z" fill="#6D8C9B"/>
<path d="M26.8595 41.9764L26.6875 41.9284C26.645 41.9179 26.6153 41.9472 26.6047 41.9889L26.4985 42.3711L26.8085 42.4567L26.9168 42.0725C26.922 42.0523 26.9189 42.0309 26.9082 42.0129C26.8974 41.9949 26.88 41.9818 26.8595 41.9764V41.9764ZM27.454 41.6423L27.282 41.5963C27.2395 41.5838 27.2119 41.613 27.1992 41.6548L26.9656 42.4902L27.2756 42.5737L27.5113 41.7383C27.5161 41.719 27.5133 41.6986 27.5034 41.6812C27.4936 41.6638 27.4775 41.6506 27.4582 41.6444L27.454 41.6423ZM28.0485 41.3081L27.8786 41.2622C27.8341 41.2497 27.8065 41.2789 27.7937 41.3228L27.4328 42.6238L27.7428 42.7073L28.1058 41.4063C28.1105 41.3861 28.1071 41.365 28.0965 41.3471C28.0858 41.3293 28.0687 41.3161 28.0485 41.3102V41.3081Z" fill="#6D8C9B"/>
<path d="M18.5408 42.9746L18.2266 43.0707L18.2414 43.2691L18.4686 43.1981L18.3455 44.0668L18.5981 44.1023L18.7531 43.0059L18.5408 42.9746Z" fill="#6D8C9B"/>
<path d="M26.2864 45.5265C26.4796 45.4262 26.6473 45.3176 26.694 45.1359C26.7094 45.0873 26.7136 45.036 26.7064 44.9856C26.6991 44.9352 26.6806 44.887 26.6522 44.8445C26.6238 44.8019 26.5862 44.7661 26.542 44.7396C26.4978 44.7131 26.4482 44.6965 26.3968 44.6911C26.2687 44.6591 26.1336 44.6672 26.0104 44.7141L26.038 44.9125C26.1171 44.875 26.2066 44.864 26.2927 44.8811C26.4201 44.9104 26.4562 44.9939 26.4329 45.09C26.3989 45.2153 26.2524 45.2988 25.9594 45.4575L25.7874 45.5494L25.7471 45.7019L26.5221 45.8919L26.5751 45.6831L26.1632 45.5808L26.2864 45.5265Z" fill="#6D8C9B"/>
<path d="M19.5831 45.7748C18.6786 45.566 17.8654 45.3571 17.1562 45.1713C17.0994 45.1559 17.0398 45.1536 16.982 45.1645C16.9241 45.1754 16.8696 45.1992 16.8226 45.2341C16.7756 45.269 16.7374 45.3141 16.711 45.3658C16.6845 45.4176 16.6705 45.4746 16.67 45.5325C16.6572 46.0741 16.6509 46.6206 16.6509 47.1719C16.6513 47.245 16.6729 47.3164 16.7132 47.3778C16.7534 47.4392 16.8106 47.488 16.8781 47.5186C17.5288 47.8087 18.1943 48.0659 18.8718 48.2892C18.9214 48.3057 18.9739 48.3122 19.0261 48.3083C19.0783 48.3045 19.1291 48.2903 19.1757 48.2668C19.2222 48.2432 19.2635 48.2107 19.297 48.1711C19.3305 48.1316 19.3556 48.0858 19.3708 48.0365C19.547 47.4434 19.7126 46.8419 19.8697 46.2405C19.8824 46.1914 19.885 46.1403 19.8774 46.0902C19.8698 46.0401 19.8522 45.992 19.8255 45.9487C19.7988 45.9053 19.7636 45.8676 19.722 45.8378C19.6804 45.8079 19.6332 45.7865 19.5831 45.7748V45.7748Z" fill="#8EB568"/>
<path d="M25.1735 46.9737L24.4771 46.838C24.3828 46.8194 24.2849 46.8361 24.2024 46.8847C24.12 46.9334 24.0589 47.0105 24.0312 47.1011C23.8486 47.6858 23.6554 48.2831 23.4495 48.8783C23.3709 49.108 23.6172 48.9305 23.8614 48.9597C24.4304 49.0287 24.9591 48.5254 25.5281 48.5546C25.681 48.5546 26.1651 48.5316 26.2394 48.3959C26.5091 47.8801 26.3753 48.2685 26.628 47.7255C26.6529 47.6727 26.6653 47.615 26.664 47.5568C26.6627 47.4986 26.6479 47.4415 26.6206 47.3898C26.5933 47.3382 26.5543 47.2934 26.5066 47.2589C26.4589 47.2244 26.4038 47.2011 26.3456 47.1909L25.1735 46.9737Z" fill="#EF8535"/>
<path d="M16.8631 44.5177C16.8907 43.6823 16.9268 42.8741 16.9672 42.1265C16.9701 42.0736 16.9843 42.0219 17.0087 41.9747C17.0332 41.9275 17.0674 41.8858 17.1092 41.8524C17.151 41.819 17.1994 41.7945 17.2513 41.7806C17.3033 41.7666 17.3577 41.7635 17.4109 41.7715C18.2602 41.8926 19.2709 42.0513 20.3835 42.2497C20.3835 42.2497 20.3707 42.2497 20.3622 42.2497C19.186 42.0409 18.1307 41.8738 17.2389 41.7464C17.1857 41.7385 17.1313 41.7416 17.0794 41.7555C17.0274 41.7694 16.979 41.7939 16.9372 41.8273C16.8954 41.8608 16.8612 41.9024 16.8367 41.9496C16.8123 41.9968 16.7981 42.0485 16.7952 42.1014C16.7548 42.8491 16.7166 43.6552 16.6911 44.4926C16.6882 44.5785 16.7149 44.6629 16.767 44.7319C16.819 44.8009 16.8933 44.8505 16.9778 44.8727C17.74 45.0815 18.6339 45.2904 19.6403 45.5389C19.6646 45.5454 19.6895 45.5489 19.7146 45.5493C18.7464 45.3175 17.8823 45.0982 17.1434 44.904C17.059 44.8805 16.9853 44.8294 16.9344 44.7592C16.8835 44.689 16.8583 44.6038 16.8631 44.5177ZM21.0396 38.8436C21.0172 38.8346 20.9936 38.829 20.9695 38.8269C19.7975 38.6807 18.6148 38.5763 17.43 38.5136C17.3294 38.5089 17.2308 38.5429 17.1551 38.6084C17.0795 38.6739 17.0326 38.7657 17.0245 38.8645C16.9757 39.4534 16.9183 40.2115 16.861 41.0844C16.8552 41.1799 16.886 41.274 16.9473 41.3483C17.0086 41.4225 17.096 41.4714 17.1922 41.4854L17.2856 41.4979C17.2062 41.4706 17.138 41.4185 17.0916 41.3494C17.0452 41.2804 17.0231 41.1983 17.0287 41.1157C17.0839 40.2428 17.1413 39.4847 17.1901 38.8958C17.1988 38.7968 17.2461 38.705 17.3221 38.6396C17.3981 38.5742 17.4969 38.5402 17.5978 38.5449C18.7556 38.6062 19.9072 38.7078 21.0523 38.8498L21.0396 38.8436ZM20.0374 48.6359C19.9384 48.6069 19.8552 48.5405 19.8058 48.4513C19.7565 48.3621 19.7451 48.2573 19.7741 48.1598C19.9546 47.5542 20.1244 46.9402 20.2837 46.3262C20.3064 46.2408 20.3582 46.1656 20.4304 46.1131C20.5027 46.0607 20.591 46.0342 20.6807 46.038L20.5809 46.015C20.4822 45.9923 20.3783 46.0087 20.2917 46.0607C20.2051 46.1126 20.1427 46.196 20.1181 46.2928C19.9588 46.9193 19.789 47.5228 19.6085 48.1285C19.5938 48.1765 19.5889 48.2268 19.5942 48.2767C19.5994 48.3265 19.6145 48.3749 19.6388 48.4189C19.6631 48.463 19.696 48.5019 19.7356 48.5334C19.7752 48.5649 19.8208 48.5884 19.8696 48.6025C20.4726 48.7738 21.1436 48.9388 21.8528 49.0787C21.1988 48.9367 20.5937 48.7863 20.0374 48.6297V48.6359ZM25.492 43.3148C25.3927 43.2914 25.2879 43.3074 25.2005 43.3594C25.1131 43.4114 25.05 43.4951 25.0249 43.5925L24.8572 44.2337C24.6979 44.833 24.5196 45.4741 24.3242 46.1362C24.309 46.1869 24.3048 46.2403 24.3118 46.2928C24.3188 46.3453 24.3369 46.3957 24.3649 46.441C24.3929 46.4862 24.4301 46.5252 24.4743 46.5554C24.5185 46.5856 24.5686 46.6064 24.6215 46.6165L24.7722 46.6457C24.7192 46.6341 24.6692 46.6117 24.6255 46.5799C24.5818 46.5482 24.5453 46.5079 24.5183 46.4615C24.4913 46.4151 24.4745 46.3637 24.4689 46.3106C24.4632 46.2574 24.4689 46.2037 24.4856 46.1529C24.6809 45.4909 24.8593 44.8497 25.0185 44.2504C25.0759 44.0415 25.1332 43.8202 25.1863 43.6092C25.2079 43.5252 25.2579 43.4509 25.3282 43.3986C25.3984 43.3462 25.4846 43.3189 25.5727 43.321L25.492 43.3148ZM24.7871 46.6562L24.923 46.6812L24.7744 46.652L24.7871 46.6562ZM22.1819 42.3416C22.942 42.494 23.7382 42.6611 24.5578 42.847H24.6151C23.7722 42.6528 22.959 42.4815 22.1819 42.3291V42.3416ZM21.9971 38.9751C21.8961 38.9601 21.7931 38.9851 21.7108 39.0446C21.6284 39.1041 21.5733 39.1932 21.5576 39.2926C21.4324 40.059 21.2901 40.8881 21.133 41.7527C21.1137 41.8515 21.135 41.9539 21.1923 42.0373C21.2496 42.1207 21.3383 42.1783 21.4387 42.1975L21.6065 42.2288C21.5551 42.2192 21.5062 42.1994 21.4628 42.1708C21.4194 42.1421 21.3823 42.1051 21.3537 42.0621C21.3252 42.019 21.3058 41.9706 21.2967 41.92C21.2875 41.8693 21.2889 41.8174 21.3007 41.7673C21.4642 40.9027 21.6086 40.0736 21.7254 39.3072C21.7411 39.2079 21.7961 39.1187 21.8785 39.0592C21.9609 38.9997 22.0638 38.9748 22.1649 38.9898C22.7615 39.0754 23.3539 39.1756 23.942 39.2842C23.2987 39.1652 22.649 39.0524 21.9971 38.9626V38.9751ZM20.8187 45.8125C20.7688 45.8012 20.7216 45.7802 20.6799 45.7508C20.6382 45.7214 20.6029 45.6842 20.576 45.6412C20.5492 45.5982 20.5312 45.5505 20.5233 45.5006C20.5154 45.4508 20.5177 45.3999 20.53 45.3509C20.7423 44.4822 20.9291 43.6155 21.099 42.776C21.1181 42.6772 21.1761 42.5899 21.2605 42.5331C21.3449 42.4764 21.4486 42.4548 21.5491 42.4732L21.3856 42.4418C21.2849 42.4234 21.1809 42.4445 21.0959 42.5008C21.0109 42.557 20.9518 42.6438 20.9313 42.7426C20.7614 43.5779 20.5724 44.4488 20.3622 45.3196C20.3502 45.3686 20.3482 45.4194 20.3562 45.4691C20.3643 45.5188 20.3822 45.5665 20.4091 45.6094C20.4359 45.6523 20.4711 45.6896 20.5126 45.719C20.5541 45.7485 20.6012 45.7696 20.651 45.7811C21.4493 45.9649 22.3071 46.1508 23.2138 46.3387C22.3623 46.1529 21.5661 45.9733 20.8187 45.7999V45.8125ZM25.7234 43.1122C25.6235 43.0879 25.5373 43.0259 25.4836 42.9394C25.4299 42.853 25.4131 42.7492 25.4368 42.6507C25.6491 41.7673 25.8466 40.9236 26.0143 40.1446C26.0294 40.0555 26.076 39.9746 26.146 39.9161C26.2159 39.8576 26.3047 39.8254 26.3965 39.8251L26.3137 39.8042C26.2632 39.7919 26.2107 39.7898 26.1593 39.7979C26.1079 39.8061 26.0587 39.8244 26.0147 39.8517C25.9707 39.879 25.9327 39.9147 25.9031 39.9568C25.8735 39.9989 25.8528 40.0465 25.8423 40.0966C25.6746 40.8797 25.4814 41.7234 25.2648 42.6026C25.2528 42.6513 25.2507 42.7019 25.2586 42.7513C25.2666 42.8008 25.2844 42.8483 25.311 42.891C25.3376 42.9337 25.3726 42.9708 25.4139 43.0001C25.4551 43.0295 25.5019 43.0506 25.5515 43.0621C26.3371 43.2521 27.1439 43.4568 27.9613 43.6886H28.0081H28.0569C27.267 43.4798 26.4892 43.2834 25.7234 43.0997V43.1122Z" fill="#314656"/>
<path d="M23.6151 48.9117C23.6745 49.5382 24.0164 47.7193 24.1968 47.1324C24.2245 47.0427 24.2849 46.9662 24.3664 46.9177C24.4479 46.8691 24.5448 46.8519 24.6385 46.8693L24.4771 46.838C24.3828 46.8194 24.2849 46.8361 24.2024 46.8847C24.12 46.9334 24.0589 47.0105 24.0312 47.1011C23.8486 47.6858 23.6554 48.2831 23.4495 48.8783C23.3709 49.108 23.6172 48.9305 23.8614 48.9597C23.8847 48.9597 24.1119 48.8094 24.1353 48.8136C24.2924 47.2076 23.6087 48.8365 23.6151 48.9117Z" fill="#DD721B"/>
<path d="M17.0541 47.5499C16.9858 47.5203 16.9277 47.4717 16.887 47.4102C16.8462 47.3486 16.8246 47.2767 16.8248 47.2032C16.8248 46.6463 16.8312 46.0999 16.8439 45.5639C16.8447 45.5139 16.8556 45.4647 16.8757 45.4189C16.8959 45.3731 16.9251 45.3316 16.9616 45.2969C16.9981 45.2622 17.0411 45.2349 17.0883 45.2166C17.1355 45.1982 17.186 45.1892 17.2367 45.19L17.1645 45.1713C17.1077 45.1559 17.0481 45.1536 16.9903 45.1645C16.9324 45.1754 16.8779 45.1992 16.8309 45.2341C16.7839 45.269 16.7457 45.3141 16.7193 45.3658C16.6928 45.4176 16.6788 45.4746 16.6783 45.5325C16.6656 46.0741 16.6592 46.6206 16.6592 47.1719C16.6596 47.245 16.6812 47.3164 16.7215 47.3778C16.7617 47.4392 16.8189 47.488 16.8864 47.5186C17.5371 47.8087 18.2026 48.0659 18.8801 48.2892C18.9212 48.3025 18.9643 48.3089 19.0075 48.308C18.3439 48.0877 17.6919 47.8346 17.0541 47.5499V47.5499Z" fill="#7EA058"/>
<path d="M17.9036 47.3055C17.883 47.3023 17.8635 47.2942 17.8469 47.2818C17.8302 47.2694 17.8169 47.2532 17.8081 47.2345L17.5576 46.7333C17.5484 46.7177 17.5425 46.7004 17.5404 46.6824C17.5383 46.6644 17.54 46.6462 17.5454 46.629C17.5508 46.6117 17.5597 46.5957 17.5716 46.5819C17.5836 46.5682 17.5983 46.557 17.6148 46.5491C17.6313 46.5412 17.6493 46.5367 17.6677 46.536C17.686 46.5352 17.7043 46.5382 17.7215 46.5447C17.7386 46.5512 17.7542 46.5611 17.7673 46.5738C17.7804 46.5865 17.7907 46.6017 17.7975 46.6185L17.9631 46.9484L18.6914 46.1757C18.7032 46.1628 18.7175 46.1522 18.7334 46.1447C18.7494 46.1372 18.7667 46.1329 18.7844 46.132C18.802 46.1311 18.8197 46.1337 18.8364 46.1396C18.853 46.1455 18.8683 46.1545 18.8814 46.1663C18.8944 46.178 18.905 46.1922 18.9124 46.208C18.9199 46.2238 18.9241 46.2408 18.9248 46.2582C18.9255 46.2756 18.9227 46.293 18.9165 46.3093C18.9103 46.3256 18.9009 46.3405 18.8888 46.3532L18.0268 47.2659C18.0125 47.2819 17.9942 47.2941 17.9738 47.3014C17.9534 47.3087 17.9315 47.3109 17.91 47.3076L17.9036 47.3055Z" fill="#E6E8E2"/>
<path d="M25.4796 48.7552L25.2673 48.3376L25.6622 48.0682C25.6938 48.0496 25.7165 48.0195 25.7255 47.9844C25.7344 47.9494 25.7289 47.9123 25.71 47.8812C25.6911 47.8502 25.6605 47.8279 25.6249 47.819C25.5893 47.8102 25.5515 47.8157 25.52 47.8343L25.1229 48.0932L24.9106 47.6881C24.8913 47.6578 24.8608 47.6361 24.8256 47.6276C24.7903 47.619 24.7531 47.6242 24.7216 47.6421C24.706 47.6512 24.6923 47.6632 24.6815 47.6775C24.6706 47.6918 24.6628 47.708 24.6584 47.7254C24.6541 47.7427 24.6533 47.7607 24.6561 47.7783C24.659 47.7959 24.6654 47.8128 24.6749 47.828L24.8873 48.2457L24.4944 48.5151C24.4775 48.5235 24.4626 48.5353 24.4505 48.5497C24.4384 48.5641 24.4295 48.5808 24.4243 48.5987C24.4191 48.6167 24.4176 48.6355 24.4201 48.654C24.4226 48.6725 24.429 48.6903 24.4388 48.7062C24.4486 48.7222 24.4617 48.736 24.4771 48.7468C24.4926 48.7576 24.5102 48.7652 24.5288 48.769C24.5473 48.7728 24.5665 48.7728 24.5851 48.769C24.6036 48.7652 24.6212 48.7577 24.6367 48.7469L25.0146 48.4879L25.1272 48.8137C25.0592 48.6842 25.2928 48.7886 25.3586 48.749C25.4244 48.7093 25.52 48.7239 25.4796 48.7552Z" fill="#E6E8E2"/>
<path d="M32.2525 15.0362C32.2595 15.0374 32.2667 15.0371 32.2736 15.0354C32.2805 15.0337 32.2869 15.0305 32.2926 15.0262C32.2982 15.0219 32.3028 15.0164 32.3061 15.0102C32.3094 15.004 32.3114 14.9972 32.3119 14.9902L32.4202 14.1278L32.331 14.1695C32.3277 14.1721 32.3236 14.1734 32.3193 14.1734C32.3151 14.1734 32.311 14.1721 32.3077 14.1695L32.2418 14.1152C32.2383 14.1132 32.2343 14.1121 32.2302 14.1121C32.2261 14.1121 32.222 14.1132 32.2185 14.1152L32.1442 14.1528C32.1406 14.1548 32.1366 14.1559 32.1325 14.1559C32.1284 14.1559 32.1244 14.1548 32.1208 14.1528L32.055 14.1006C32.0514 14.0986 32.0474 14.0975 32.0433 14.0975C32.0392 14.0975 32.0352 14.0986 32.0316 14.1006L31.9573 14.1382C31.9538 14.1402 31.9497 14.1413 31.9456 14.1413C31.9415 14.1413 31.9375 14.1402 31.934 14.1382L31.8681 14.0839C31.8648 14.0814 31.8607 14.08 31.8565 14.08C31.8522 14.08 31.8481 14.0814 31.8448 14.0839L31.7705 14.1194C31.7671 14.1219 31.763 14.1233 31.7588 14.1233C31.7546 14.1233 31.7505 14.1219 31.7471 14.1194L31.6834 14.0651C31.6795 14.0631 31.6751 14.062 31.6707 14.062C31.6662 14.062 31.6619 14.0631 31.6579 14.0651L31.5836 14.1027C31.5801 14.1047 31.5761 14.1058 31.572 14.1058C31.5679 14.1058 31.5638 14.1047 31.5603 14.1027L31.4838 14.04L31.3777 14.9025C31.3764 14.9165 31.3805 14.9305 31.3891 14.9417C31.3977 14.9529 31.4103 14.9606 31.4244 14.9631L32.2525 15.0362Z" fill="#F8AB46"/>
<path d="M31.7301 14.4558L31.5623 14.437C31.5475 14.5623 31.5326 14.6855 31.5156 14.8108L31.6133 14.8234L31.6282 14.7127H31.677L31.7301 14.8296L31.8384 14.8442V14.8275L31.7789 14.7001C31.801 14.6851 31.8182 14.6641 31.8284 14.6396C31.8385 14.6151 31.8412 14.5882 31.836 14.5622C31.8308 14.5363 31.818 14.5124 31.7992 14.4935C31.7804 14.4746 31.7563 14.4615 31.7301 14.4558ZM31.7067 14.6354H31.6388C31.6388 14.6041 31.6388 14.5728 31.6494 14.5414H31.7195C31.7747 14.5498 31.7598 14.6417 31.7046 14.6354H31.7067Z" fill="white"/>
<path d="M32.1487 14.506L32.1296 14.7545C32.1281 14.7613 32.1253 14.7676 32.1213 14.7733C32.1172 14.7789 32.1121 14.7837 32.1062 14.7874C32.1003 14.7911 32.0937 14.7936 32.0868 14.7948C32.0798 14.7959 32.0728 14.7958 32.0659 14.7942C32.0383 14.7942 32.0086 14.7712 32.0129 14.742L32.0447 14.4935L31.9513 14.481L31.9194 14.7316C31.9212 14.7676 31.9358 14.8019 31.9608 14.8283C31.9858 14.8547 32.0195 14.8715 32.056 14.8758C32.0924 14.88 32.1292 14.8714 32.1598 14.8515C32.1904 14.8316 32.2128 14.8017 32.2231 14.7671L32.2528 14.5185L32.1487 14.506Z" fill="white"/>
<path d="M31.3948 14.8044C31.4254 14.8044 31.4502 14.7801 31.4502 14.7501C31.4502 14.7201 31.4254 14.6958 31.3948 14.6958C31.3642 14.6958 31.3394 14.7201 31.3394 14.7501C31.3394 14.7801 31.3642 14.8044 31.3948 14.8044Z" fill="white"/>
<g opacity="0.49">
<path d="M25.3348 14.2345C25.338 14.2072 25.3358 14.1795 25.3281 14.1531C25.3205 14.1266 25.3076 14.1019 25.2903 14.0804C25.2729 14.0589 25.2514 14.0409 25.227 14.0276C25.2026 14.0142 25.1757 14.0058 25.1479 14.0027L24.8571 13.9692L24.7764 14.6354L25.0927 14.673C25.1206 14.6765 25.149 14.6745 25.1761 14.6671C25.2032 14.6598 25.2286 14.6472 25.2507 14.6301C25.2729 14.613 25.2913 14.5917 25.305 14.5675C25.3187 14.5434 25.3274 14.5167 25.3305 14.4892C25.336 14.4614 25.3328 14.4326 25.3214 14.4066C25.3101 14.3805 25.2911 14.3584 25.2668 14.3431C25.3032 14.3171 25.3276 14.2781 25.3348 14.2345V14.2345ZM25.1012 14.5206L24.9611 14.5039L24.976 14.3911L25.114 14.4078C25.1798 14.4099 25.167 14.5289 25.097 14.5206H25.1012ZM25.1012 14.2616L24.9908 14.2491L25.0057 14.1405L25.114 14.1551C25.1267 14.1587 25.1378 14.1667 25.145 14.1776C25.1523 14.1886 25.1553 14.2017 25.1535 14.2147C25.1517 14.2276 25.1452 14.2395 25.1352 14.2481C25.1252 14.2568 25.1124 14.2615 25.0991 14.2616H25.1012Z" fill="#4E485E"/>
<path d="M25.7594 14.6042C25.7358 14.6002 25.7132 14.5915 25.6931 14.5788C25.6729 14.566 25.6556 14.5494 25.6421 14.5299C25.6286 14.5104 25.6193 14.4884 25.6146 14.4653C25.61 14.4422 25.6101 14.4184 25.615 14.3953C25.6151 14.3717 25.6204 14.3483 25.6303 14.3268C25.6403 14.3053 25.6548 14.2861 25.6728 14.2705C25.6909 14.2549 25.7121 14.2433 25.7351 14.2364C25.7581 14.2294 25.7823 14.2274 25.8061 14.2303C25.839 14.2313 25.8706 14.2436 25.8953 14.2649C25.9201 14.2862 25.9366 14.3153 25.942 14.3473L26.1119 14.3661C26.1099 14.2911 26.0793 14.2197 26.0262 14.1659C25.9731 14.1121 25.9013 14.08 25.8252 14.0758C25.7798 14.0703 25.7337 14.0737 25.6896 14.0857C25.6454 14.0978 25.6042 14.1182 25.5681 14.146C25.532 14.1737 25.5018 14.2081 25.4793 14.2473C25.4567 14.2865 25.4423 14.3297 25.4367 14.3744C25.4311 14.4191 25.4345 14.4645 25.4468 14.5079C25.459 14.5513 25.4798 14.5919 25.508 14.6274C25.5362 14.6629 25.5712 14.6925 25.6111 14.7147C25.6509 14.7369 25.6949 14.7511 25.7403 14.7566C25.8173 14.7711 25.897 14.7561 25.9629 14.7145C26.0289 14.6729 26.0762 14.608 26.0949 14.5331L25.925 14.5123C25.9127 14.5442 25.8894 14.5709 25.8591 14.5877C25.8289 14.6045 25.7936 14.6103 25.7594 14.6042V14.6042Z" fill="#4E485E"/>
<path d="M26.6851 14.3428C26.6851 14.2906 26.6979 14.2384 26.7042 14.1904L26.2796 14.1382L26.1968 14.8065L26.6214 14.8587L26.6405 14.7062L26.3964 14.6749C26.3964 14.6352 26.3964 14.5976 26.4112 14.5579L26.6405 14.5851L26.6596 14.4347L26.4218 14.4097L26.4346 14.3157L26.6851 14.3428Z" fill="#4E485E"/>
<path d="M27.9292 14.3366L27.7509 14.3136C27.7339 14.4389 27.7275 14.5684 27.5534 14.5475H27.5407L27.5725 14.2948L27.3963 14.2739L27.3135 14.9422L27.4897 14.9631L27.5216 14.7083H27.5895L27.7063 14.984L27.8995 15.0069V14.9819L27.7509 14.6645C27.8995 14.5976 27.9122 14.4723 27.9292 14.3366Z" fill="#4E485E"/>
<path d="M28.407 14.3848H28.3752H28.3327L27.9463 14.9987V15.0238L28.1161 15.0447L28.1671 14.9653L28.3794 14.9904H28.4261L28.4537 15.0781L28.6236 15.099V15.0739L28.407 14.3848ZM28.3837 14.8275L28.2372 14.8108L28.337 14.6437L28.3837 14.7941V14.8296V14.8275Z" fill="#4E485E"/>
<path d="M29.046 14.9966C29.0222 14.9929 28.9994 14.9844 28.979 14.9718C28.9586 14.9591 28.941 14.9425 28.9273 14.923C28.9136 14.9035 28.9041 14.8814 28.8993 14.8582C28.8945 14.8349 28.8946 14.811 28.8995 14.7878C28.8996 14.7641 28.9048 14.7408 28.9148 14.7193C28.9247 14.6978 28.9392 14.6786 28.9573 14.663C28.9754 14.6474 28.9966 14.6357 29.0195 14.6288C29.0425 14.6219 29.0667 14.6198 29.0906 14.6228C29.1232 14.6237 29.1545 14.6356 29.1792 14.6565C29.204 14.6774 29.2206 14.7061 29.2265 14.7376L29.3984 14.7585C29.3964 14.6832 29.3655 14.6115 29.312 14.5577C29.2584 14.5039 29.1862 14.4719 29.1097 14.4682C29.0642 14.4629 29.0182 14.4664 28.9741 14.4786C28.93 14.4907 28.8888 14.5113 28.8528 14.5392C28.8169 14.567 28.7868 14.6015 28.7644 14.6408C28.742 14.68 28.7276 14.7232 28.7222 14.7679C28.7168 14.8126 28.7203 14.8579 28.7327 14.9013C28.7451 14.9446 28.766 14.9852 28.7943 15.0206C28.8226 15.0559 28.8577 15.0855 28.8976 15.1076C28.9375 15.1296 28.9814 15.1437 29.0269 15.1491C29.1041 15.1635 29.1841 15.1482 29.2501 15.1062C29.3162 15.0642 29.3632 14.9987 29.3815 14.9235L29.2095 14.9047C29.1976 14.9365 29.1746 14.9631 29.1447 14.9799C29.1148 14.9967 29.0799 15.0026 29.046 14.9966V14.9966Z" fill="#4E485E"/>
<path d="M29.8086 15.0863C29.7846 15.0829 29.7617 15.0746 29.7411 15.062C29.7206 15.0495 29.7029 15.0329 29.6891 15.0133C29.6754 14.9937 29.6659 14.9715 29.6612 14.9481C29.6566 14.9248 29.6569 14.9007 29.6621 14.8775C29.6622 14.8538 29.6674 14.8305 29.6774 14.809C29.6873 14.7875 29.7018 14.7683 29.7199 14.7527C29.7379 14.7371 29.7592 14.7255 29.7821 14.7185C29.8051 14.7116 29.8293 14.7095 29.8532 14.7125C29.8859 14.713 29.9174 14.7248 29.9422 14.7458C29.967 14.7668 29.9836 14.7956 29.9891 14.8274L30.161 14.8482C30.1585 14.7729 30.1276 14.7012 30.0742 14.6471C30.0208 14.593 29.9488 14.5605 29.8723 14.5559C29.8263 14.5508 29.7797 14.5547 29.7352 14.5673C29.6907 14.5799 29.6492 14.6011 29.6131 14.6295C29.5769 14.6579 29.5467 14.693 29.5244 14.7329C29.502 14.7728 29.4878 14.8166 29.4827 14.8618C29.4775 14.9071 29.4815 14.9529 29.4943 14.9966C29.5071 15.0404 29.5286 15.0812 29.5575 15.1168C29.5864 15.1524 29.6221 15.182 29.6626 15.204C29.7032 15.226 29.7477 15.24 29.7937 15.245C29.8707 15.2594 29.9504 15.244 30.0161 15.202C30.0818 15.1599 30.1284 15.0946 30.1462 15.0195L29.9763 14.9986C29.9635 15.0304 29.9396 15.0568 29.9089 15.0728C29.8781 15.0889 29.8426 15.0937 29.8086 15.0863V15.0863Z" fill="#4E485E"/>
<path d="M30.9953 14.7024L30.9146 15.3707L31.0866 15.3916L31.1694 14.7233L30.9953 14.7024ZM30.6004 14.8569L30.4751 14.8423L30.5006 14.6439L30.3265 14.623L30.2437 15.2892L30.543 15.3268C30.5744 15.3305 30.6062 15.3281 30.6366 15.3197C30.667 15.3113 30.6955 15.2971 30.7203 15.278C30.7452 15.2588 30.7659 15.2349 30.7814 15.2078C30.7969 15.1808 30.8068 15.1509 30.8106 15.1201C30.8143 15.0892 30.8119 15.0579 30.8033 15.028C30.7948 14.9981 30.7804 14.9701 30.7609 14.9457C30.7413 14.9213 30.7171 14.9008 30.6896 14.8856C30.662 14.8704 30.6317 14.8606 30.6004 14.8569V14.8569ZM30.56 15.1723C30.5187 15.1696 30.4776 15.1647 30.4369 15.1577L30.456 14.9969L30.5813 15.0115C30.6747 15.0219 30.6619 15.1848 30.56 15.1723V15.1723Z" fill="#4E485E"/>
<path d="M27.2024 14.5154L26.8125 14.4688L26.7979 14.5869L27.1878 14.6335L27.2024 14.5154Z" fill="#4E485E"/>
</g>
<path d="M36.242 41.479C31.0634 49.041 17.5574 52.5474 8.48047 44.1939" stroke="#233B57" stroke-width="5" stroke-miterlimit="10"/>
<path d="M53.0456 33.9572C53.5252 34.1645 53.9304 34.5086 54.209 34.945C54.4876 35.3813 54.6267 35.8898 54.6083 36.4047C54.5892 38.4931 53.2134 40.1868 50.5529 40.1868H44.4443V28.21H50.0051C52.2558 28.21 54.0605 29.818 54.0605 31.8876C54.0511 32.2838 53.9557 32.6734 53.7807 33.0303C53.6056 33.3873 53.355 33.7033 53.0456 33.9572V33.9572ZM47.6717 30.9457V32.8796H49.7716C51.0922 32.8796 51.0922 30.9457 49.7546 30.9457H47.6717ZM47.6717 35.4295V37.4656H50.33C51.6698 37.4656 51.6506 35.4295 50.3109 35.4295H47.6717Z" fill="#243B57"/>
<path d="M63.1053 28.0718C65.8019 28.0718 68.7213 29.423 69.2245 32.6223H65.9505C65.4855 31.409 64.5003 30.8618 63.1053 30.8618C61.1519 30.8618 59.8695 32.213 59.8695 34.2032C59.8695 35.9658 61.1435 37.5049 63.1053 37.5237C64.5173 37.5237 65.6532 36.8722 66.0057 35.5899H69.2861C68.802 38.9773 65.8889 40.3117 63.1117 40.3117C59.8016 40.3284 56.4532 38.2756 56.4341 34.2032C56.4468 30.1246 59.7952 28.0718 63.1053 28.0718Z" fill="#243B57"/>
<path d="M79.9533 30.9457H75.1356V32.6415H79.5626V35.3564H75.1356V37.4656H80.1147V40.1805H71.834V28.21H79.9618L79.9533 30.9457Z" fill="#243B57"/>
<path d="M93.228 40.1868V28.21H96.6125V32.7438H96.8545C100.184 32.7438 100.016 30.4466 100.016 28.21H103.439C103.439 30.6554 103.513 32.9151 100.927 34.4375L104.462 39.7064V40.1868H100.761L97.8971 35.5485C97.4714 35.6053 97.0419 35.6283 96.6125 35.6174V40.1868H93.228Z" fill="#243B57"/>
<path d="M114.465 38.6809H109.333L108.569 40.1866H105.316V39.7418L111.174 28.0469H112.601L118.478 39.7418V40.1866H115.227L114.465 38.6809ZM111.881 32.9149L110.412 36.062H113.384L111.881 32.9149Z" fill="#243B57"/>
<path d="M126.085 28.0718C128.784 28.0718 131.703 29.423 132.206 32.6223H128.932C128.465 31.409 127.48 30.8618 126.085 30.8618C124.134 30.8618 122.849 32.213 122.849 34.2032C122.849 35.9658 124.123 37.5049 126.085 37.5237C127.499 37.5237 128.633 36.8722 128.988 35.5899H132.262C131.778 38.9773 128.864 40.3117 126.085 40.3117C122.775 40.3284 119.429 38.2756 119.41 34.2032C119.429 30.1246 122.775 28.0718 126.085 28.0718Z" fill="#243B57"/>
<path d="M140.702 28.0718C143.398 28.0718 146.32 29.423 146.821 32.6223H143.547C143.084 31.409 142.097 30.8618 140.702 30.8618C138.751 30.8618 137.466 32.213 137.466 34.2032C137.466 35.9658 138.74 37.5049 140.702 37.5237C142.116 37.5237 143.25 36.8722 143.602 35.5899H146.876C146.392 38.9773 143.479 40.3117 140.702 40.3117C137.392 40.3284 134.045 38.2756 134.026 34.2032C134.045 30.1246 137.392 28.0718 140.702 28.0718Z" fill="#243B57"/>
<path d="M152.751 28.21V31.7853H155.151C161.382 31.7853 161.382 40.168 155.151 40.1868H149.418V28.21H152.751ZM152.751 34.5398V37.4489C153.514 37.4489 154.352 37.4656 155.134 37.4489C157.066 37.4322 156.956 34.5398 155.134 34.5398H152.751ZM162.285 28.21H165.614V40.1868H162.285V28.21Z" fill="#243B57"/>
<path d="M186.924 31.5659C187.187 31.5743 187.442 31.4799 187.634 31.3033C187.826 31.1267 187.939 30.8824 187.948 30.624V15.145L186.383 16.0931C186.315 16.1342 186.238 16.156 186.159 16.156C186.08 16.156 186.002 16.1342 185.935 16.0931L184.589 15.2808C184.521 15.2393 184.443 15.2173 184.364 15.2173C184.284 15.2173 184.206 15.2393 184.138 15.2808L182.794 16.0931C182.727 16.1346 182.649 16.1566 182.569 16.1566C182.49 16.1566 182.412 16.1346 182.344 16.0931L181.002 15.2808C180.934 15.2409 180.856 15.2198 180.776 15.2198C180.697 15.2198 180.619 15.2409 180.55 15.2808L179.208 16.0931C179.141 16.1346 179.063 16.1566 178.983 16.1566C178.904 16.1566 178.826 16.1346 178.758 16.0931L177.418 15.2808C177.35 15.2409 177.273 15.2198 177.193 15.2198C177.114 15.2198 177.036 15.2409 176.968 15.2808L175.631 16.0931C175.562 16.133 175.484 16.1541 175.404 16.1541C175.325 16.1541 175.247 16.133 175.178 16.0931L173.839 15.2808C173.77 15.2409 173.693 15.2198 173.613 15.2198C173.534 15.2198 173.456 15.2409 173.388 15.2808L172.047 16.0931C171.978 16.133 171.901 16.1541 171.821 16.1541C171.742 16.1541 171.664 16.133 171.596 16.0931L170.034 15.145V30.624C170.043 30.8824 170.155 31.1267 170.347 31.3033C170.539 31.4799 170.794 31.5743 171.057 31.5659H186.924Z" fill="#F7AD5C"/>
<path d="M178.641 28.78V29.0285H176.554L175.304 27.0508H174.331V29.0285H172.465V22.3081H175.667C178.537 22.3185 179.064 25.495 177.212 26.6477L178.641 28.78ZM175.669 23.8451C175.231 23.8347 174.773 23.8451 174.333 23.8451V25.5054H175.669C176.679 25.5054 176.733 23.8535 175.667 23.8451H175.669Z" fill="white"/>
<path d="M183.705 26.7626V22.3081H185.51V26.7918C185.51 28.2704 184.1 29.1246 182.599 29.1246C181.098 29.1246 179.699 28.2704 179.699 26.7918V22.3081H181.482V26.7626C181.482 27.3098 182.056 27.5792 182.599 27.5792C183.143 27.5792 183.705 27.3098 183.705 26.7626Z" fill="white"/>
<path d="M170.032 29.1538C170.602 29.1538 171.064 28.7284 171.064 28.2036C171.064 27.6788 170.602 27.2534 170.032 27.2534C169.462 27.2534 169 27.6788 169 28.2036C169 28.7284 169.462 29.1538 170.032 29.1538Z" fill="white"/>
<path d="M90.1366 32.915H82.6543V35.0326H90.1366V32.915Z" fill="#243B57"/>
<path d="M5.81576 36.0431C6.58225 35.3707 7.72668 35.3665 8.74584 35.4542C9.18094 35.4797 9.61216 35.5497 10.0325 35.663C10.6388 35.8491 11.1854 36.1873 11.6184 36.6443C12.0514 37.1013 12.3559 37.6614 12.5019 38.2693C12.6484 38.9146 12.6335 39.6497 13.0921 40.1322C13.1723 40.2068 13.2435 40.2901 13.3045 40.3807C13.3747 40.5235 13.392 40.686 13.3533 40.8401C13.3039 41.0867 13.192 41.3171 13.0279 41.5099C12.8638 41.7026 12.653 41.8515 12.4148 41.9428C12.2775 41.9716 12.1524 42.0408 12.056 42.1412C12.0095 42.2247 11.9826 42.3175 11.9774 42.4127C11.8288 43.3524 10.6865 43.7764 9.71829 43.7429C8.98152 43.7179 8.53352 43.6302 7.96661 43.1666C7.81925 43.0267 7.64636 42.9154 7.45703 42.8387C7.17251 42.7489 6.86464 42.8387 6.56739 42.8053C6.34678 42.7825 6.13684 42.7003 5.96074 42.5676C5.78464 42.435 5.64923 42.257 5.56946 42.0535C5.45056 41.7423 5.45268 41.358 5.18728 41.1513C5.06951 41.0796 4.94757 41.0147 4.82208 40.9571C4.5227 40.7775 4.39743 40.4162 4.31462 40.0799C4.15 39.3363 4.20371 38.562 4.4695 37.8472C4.73529 37.1325 5.20219 36.5068 5.81576 36.0431Z" fill="#DEDEDE"/>
<path d="M9.59558 35.7612C8.61252 35.5043 6.66762 35.5106 5.87565 36.3877C5.08368 37.2648 4.57834 37.6742 4.62506 38.4427C4.67177 39.2112 5.1771 40.222 5.71216 39.9359C6.24722 39.6498 6.72495 39.4284 6.48078 39.8565C6.2366 40.2846 6.05612 41.0302 6.93515 41.1095C7.81418 41.1889 8.2091 41.1847 8.59978 40.8172C8.99046 40.4496 8.83121 41.2787 8.8121 41.6901C8.72505 43.2146 10.7655 43.6031 11.1816 42.421C11.326 41.688 10.9162 40.9404 11.2326 40.8109C11.549 40.6814 12.91 41.2286 12.9949 40.7921C13.0798 40.3556 12.2284 39.5266 12.1031 38.662C11.9779 37.7974 11.5341 36.2708 9.59558 35.7612Z" fill="#EDEDED"/>
<path d="M4.31473 40.0781C4.39117 40.4143 4.52706 40.7756 4.82219 40.9552C4.94768 41.0129 5.06963 41.0777 5.18739 41.1495C5.4528 41.3583 5.45067 41.7405 5.56957 42.0516C5.64935 42.2552 5.78476 42.4331 5.96085 42.5658C6.13695 42.6985 6.34689 42.7807 6.5675 42.8034C6.86476 42.8306 7.17263 42.7471 7.45714 42.8369C7.64648 42.9136 7.81936 43.0249 7.96672 43.1647C8.53363 43.6284 8.98164 43.7161 9.7184 43.7411C10.6866 43.7745 11.8289 43.3506 11.9775 42.4108C11.9828 42.3157 12.0096 42.2229 12.0561 42.1393C12.1525 42.039 12.2776 41.9698 12.4149 41.9409C12.6531 41.8497 12.864 41.7008 13.028 41.5081C13.1921 41.3153 13.304 41.0849 13.3534 40.8383C13.3921 40.6842 13.3748 40.5217 13.3046 40.3788C13.2791 40.3357 13.2484 40.2958 13.2133 40.2598C13.3046 40.3809 13.2685 40.903 13.0009 41.1495C12.7334 41.3959 12.4277 41.2977 11.9393 41.114C11.451 40.9302 11.2302 40.7777 11.4828 41.0952C11.7355 41.4126 11.8225 41.8324 11.589 41.5379C11.3554 41.2434 11.2004 41.2977 11.33 41.5671C11.4595 41.8365 11.4595 42.0725 11.6208 42.0558C11.7822 42.0391 11.7504 42.7491 11.1474 43.0394C10.5443 43.3297 9.47848 43.8873 8.76931 43.3715C8.06015 42.8557 7.88392 42.5361 8.04104 42.037C8.19816 41.5379 8.23425 41.4105 7.72467 41.9765C7.21509 42.5424 6.43374 42.5675 6.07915 42.1561C5.72457 41.7446 5.61204 41.3875 5.63327 41.1536C5.70298 40.8357 5.81656 40.5287 5.97087 40.241C6.08765 40.0134 6.10251 39.8839 5.68211 40.241C5.2617 40.5981 4.83281 40.218 4.56103 39.7231C4.31898 39.2741 4.33384 38.6079 4.37418 38.1631C4.19673 38.7872 4.17633 39.4445 4.31473 40.0781V40.0781Z" fill="#C2C2C2"/>
</g>
<defs>
<linearGradient id="paint0_linear_10_455" x1="19.7934" y1="21.9734" x2="20.9707" y2="4.67458" gradientUnits="userSpaceOnUse">
<stop stop-color="#62707C"/>
<stop offset="0.09" stop-color="#697681"/>
<stop offset="0.23" stop-color="#7B8690"/>
<stop offset="0.38" stop-color="#99A2A7"/>
<stop offset="0.55" stop-color="#C2C7C8"/>
<stop offset="0.66" stop-color="#DFE1DF"/>
<stop offset="0.82" stop-color="#DCDDDD"/>
<stop offset="0.84" stop-color="#DBDCDD"/>
<stop offset="0.89" stop-color="#D7D9DA"/>
<stop offset="0.93" stop-color="#CBCFD1"/>
<stop offset="0.98" stop-color="#B8BEC2"/>
<stop offset="1" stop-color="#ABB3B8"/>
</linearGradient>
<linearGradient id="paint1_linear_10_455" x1="24.5968" y1="32.5948" x2="24.8861" y2="29.7791" gradientUnits="userSpaceOnUse">
<stop stop-color="white"/>
<stop offset="0.5" stop-color="#FDFDFD"/>
<stop offset="0.68" stop-color="#F6F6F6"/>
<stop offset="0.81" stop-color="#EBEBEB"/>
<stop offset="0.92" stop-color="#DADADA"/>
<stop offset="1" stop-color="#C6C6C6"/>
</linearGradient>
<linearGradient id="paint2_linear_10_455" x1="24.4408" y1="37.3085" x2="24.6749" y2="35.0245" gradientUnits="userSpaceOnUse">
<stop stop-color="white"/>
<stop offset="0.5" stop-color="#FDFDFD"/>
<stop offset="0.68" stop-color="#F6F6F6"/>
<stop offset="0.81" stop-color="#EBEBEB"/>
<stop offset="0.92" stop-color="#DADADA"/>
<stop offset="1" stop-color="#C6C6C6"/>
</linearGradient>
<clipPath id="clip0_10_455">
<rect width="188" height="57" fill="white"/>
</clipPath>
</defs>
</svg>
